<?xml version="1.0" encoding="UTF-8" standalone="no"?>
<svg
   xmlns:dc="http://purl.org/dc/elements/1.1/"
   xmlns:cc="http://creativecommons.org/ns#"
   xmlns:rdf="http://www.w3.org/1999/02/22-rdf-syntax-ns#"
   xmlns:svg="http://www.w3.org/2000/svg"
   xmlns="http://www.w3.org/2000/svg"
   xmlns:sodipodi="http://sodipodi.sourceforge.net/DTD/sodipodi-0.dtd"
   xmlns:inkscape="http://www.inkscape.org/namespaces/inkscape"
   width="210mm"
   height="297mm"
   viewBox="0 0 210 297"
   version="1.1"
   id="svg8"
   inkscape:version="1.0.1 (c497b03c, 2020-09-10)"
   sodipodi:docname="design_one_color.svg">
  <defs
     id="defs2" />
  <sodipodi:namedview
     id="base"
     pagecolor="#ffffff"
     bordercolor="#666666"
     borderopacity="1.0"
     inkscape:pageopacity="0.0"
     inkscape:pageshadow="2"
     inkscape:zoom="4.4123861"
     inkscape:cx="195.38808"
     inkscape:cy="314.25116"
     inkscape:document-units="mm"
     inkscape:current-layer="layer1"
     inkscape:document-rotation="0"
     showgrid="false"
     inkscape:window-width="1440"
     inkscape:window-height="847"
     inkscape:window-x="0"
     inkscape:window-y="25"
     inkscape:window-maximized="0" />
  <metadata
     id="metadata5">
    <rdf:RDF>
      <cc:Work
         rdf:about="">
        <dc:format>image/svg+xml</dc:format>
        <dc:type
           rdf:resource="http://purl.org/dc/dcmitype/StillImage" />
        <dc:title></dc:title>
      </cc:Work>
    </rdf:RDF>
  </metadata>
  <g
     inkscape:label="レイヤー 1"
     inkscape:groupmode="layer"
     id="layer1">
    <rect
       style="fill:none;fill-rule:evenodd;stroke:#000000;stroke-width:0.26458333;stroke-linecap:round;stroke-linejoin:round;stroke-miterlimit:4;stroke-dasharray:none;stroke-opacity:1"
       id="rect833"
       width="13.229167"
       height="13.229167"
       x="31.75"
       y="62.744045" />
    <rect
       style="fill:none;fill-rule:evenodd;stroke:#000000;stroke-width:0.26458333;stroke-linecap:round;stroke-linejoin:round;stroke-miterlimit:4;stroke-dasharray:none;stroke-opacity:1"
       id="rect837"
       width="13.229167"
       height="13.229167"
       x="44.979431"
       y="62.744045" />
    <rect
       style="fill:none;fill-rule:evenodd;stroke:#000000;stroke-width:0.26458333;stroke-linecap:round;stroke-linejoin:round;stroke-miterlimit:4;stroke-dasharray:none;stroke-opacity:1"
       id="rect841"
       width="6.346034"
       height="6.3460345"
       x="48.420998"
       y="66.185608"
       ry="1.8755187" />
    <rect
       style="fill:none;fill-rule:evenodd;stroke:#000000;stroke-width:0.26458333;stroke-linecap:round;stroke-linejoin:round;stroke-miterlimit:4;stroke-dasharray:none;stroke-opacity:1"
       id="rect843"
       width="13.229167"
       height="13.229167"
       x="58.208599"
       y="62.744045" />
    <rect
       style="fill:none;fill-rule:evenodd;stroke:#000000;stroke-width:0.26458333;stroke-linecap:round;stroke-linejoin:round;stroke-miterlimit:4;stroke-dasharray:none;stroke-opacity:1"
       id="rect845"
       width="6.3693252"
       height="3.0620329"
       x="61.687466"
       y="69.481255"
       ry="1.5310165" />
    <ellipse
       style="fill:none;fill-rule:evenodd;stroke:#000000;stroke-width:0.26458333;stroke-linecap:round;stroke-linejoin:round;stroke-miterlimit:4;stroke-dasharray:none;stroke-opacity:1"
       id="circle847"
       cx="63.218483"
       cy="67.704979"
       rx="1.5327649"
       ry="1.5327648" />
    <ellipse
       style="fill:none;fill-rule:evenodd;stroke:#000000;stroke-width:0.26458333;stroke-linecap:round;stroke-linejoin:round;stroke-miterlimit:4;stroke-dasharray:none;stroke-opacity:1"
       id="circle849"
       cx="66.525772"
       cy="67.704979"
       rx="1.5327649"
       ry="1.5327648" />
    <rect
       style="fill:none;fill-rule:evenodd;stroke:#000000;stroke-width:0.26458333;stroke-linecap:round;stroke-linejoin:round;stroke-miterlimit:4;stroke-dasharray:none;stroke-opacity:1"
       id="rect851"
       width="13.229167"
       height="13.229167"
       x="31.75"
       y="75.973251" />
    <rect
       style="fill:none;fill-rule:evenodd;stroke:#000000;stroke-width:0.26458333;stroke-linecap:round;stroke-linejoin:round;stroke-miterlimit:4;stroke-dasharray:none;stroke-opacity:1"
       id="rect853"
       width="13.229167"
       height="13.229167"
       x="44.979431"
       y="75.973251" />
    <rect
       style="fill:none;fill-rule:evenodd;stroke:#000000;stroke-width:0.26458333;stroke-linecap:round;stroke-linejoin:round;stroke-miterlimit:4;stroke-dasharray:none;stroke-opacity:1"
       id="rect855"
       width="13.229167"
       height="13.229167"
       x="58.208599"
       y="75.973251" />
    <rect
       style="fill:none;fill-rule:evenodd;stroke:#000000;stroke-width:0.26458333;stroke-linecap:round;stroke-linejoin:round;stroke-miterlimit:4;stroke-dasharray:none;stroke-opacity:1"
       id="rect863"
       width="6.3957791"
       height="2.4270282"
       x="35.166695"
       y="84.020149"
       ry="1.2135141" />
    <ellipse
       style="fill:none;fill-rule:evenodd;stroke:#000000;stroke-width:0.26458333;stroke-linecap:round;stroke-linejoin:round;stroke-miterlimit:4;stroke-dasharray:none;stroke-opacity:1"
       id="ellipse865"
       cx="36.380207"
       cy="82.58783"
       rx="1.2262119"
       ry="1.226212" />
    <ellipse
       style="fill:none;fill-rule:evenodd;stroke:#000000;stroke-width:0.26458333;stroke-linecap:round;stroke-linejoin:round;stroke-miterlimit:4;stroke-dasharray:none;stroke-opacity:1"
       id="ellipse867"
       cx="40.348961"
       cy="82.58783"
       rx="1.2262119"
       ry="1.226212" />
    <rect
       style="fill:none;fill-rule:evenodd;stroke:#000000;stroke-width:0.26458333;stroke-linecap:round;stroke-linejoin:round;stroke-miterlimit:4;stroke-dasharray:none;stroke-opacity:1"
       id="rect869"
       width="6.3957791"
       height="2.4270282"
       x="35.166695"
       y="78.728485"
       ry="1.2135141" />
    <rect
       style="fill:none;fill-rule:evenodd;stroke:#000000;stroke-width:0.26458333;stroke-linecap:round;stroke-linejoin:round;stroke-miterlimit:4;stroke-dasharray:none;stroke-opacity:1"
       id="rect871"
       width="13.229167"
       height="13.229167"
       x="44.979168"
       y="75.973251" />
    <path
       id="rect873"
       style="fill:none;fill-rule:evenodd;stroke:#000000;stroke-width:0.26458333;stroke-linecap:round;stroke-linejoin:round;stroke-miterlimit:4;stroke-dasharray:none;stroke-opacity:1"
       d="m 49.604209,79.35444 c -0.672288,0 -1.213363,0.541076 -1.213363,1.213363 v 3.96875 c 0,0.08973 0.01064,0.176874 0.02894,0.260967 0.09098,0.581038 0.587394,1.02371 1.194758,1.02371 h 3.96875 c 0.672285,0 1.213363,-0.541076 1.213363,-1.213363 0,0 -0.01894,-2.69742 -0.01894,-4.040064 0,-0.672287 -0.541076,-1.213363 -1.213363,-1.213363 -0.672286,0 -1.21049,0.541081 -1.213361,1.213363 l -0.01206,2.8267 H 50.81757 v -2.8267 c -3e-6,-0.672287 -0.541078,-1.213363 -1.213364,-1.213363 z"
       sodipodi:nodetypes="ssscssccssccss" />
    <rect
       style="fill:none;fill-rule:evenodd;stroke:#000000;stroke-width:0.26458333;stroke-linecap:round;stroke-linejoin:round;stroke-miterlimit:4;stroke-dasharray:none;stroke-opacity:1"
       id="rect896"
       width="13.229167"
       height="13.229167"
       x="31.75"
       y="89.202415" />
    <rect
       style="fill:none;fill-rule:evenodd;stroke:#000000;stroke-width:0.26458333;stroke-linecap:round;stroke-linejoin:round;stroke-miterlimit:4;stroke-dasharray:none;stroke-opacity:1"
       id="rect898"
       width="13.229167"
       height="13.229167"
       x="58.208599"
       y="89.202415" />
    <rect
       style="fill:none;fill-rule:evenodd;stroke:#000000;stroke-width:0.26458333;stroke-linecap:round;stroke-linejoin:round;stroke-miterlimit:4;stroke-dasharray:none;stroke-opacity:1"
       id="rect900"
       width="13.229167"
       height="13.229167"
       x="44.979168"
       y="89.202415" />
    <path
       id="rect902"
       style="fill:none;fill-rule:evenodd;stroke:#000000;stroke-width:1.00000001;stroke-linecap:round;stroke-linejoin:round;stroke-miterlimit:4;stroke-dasharray:none;stroke-opacity:1"
       d="M 137.46094 348.24414 C 134.891 348.24414 132.82227 350.31287 132.82227 352.88281 L 132.82227 361.83398 C 132.82227 362.26101 132.89685 362.66643 133.00391 363.05859 C 133.42579 365.15807 135.27265 366.73047 137.5 366.73047 L 147.85156 366.73047 L 147.85156 371.14258 C 147.85156 373.71252 149.9203 375.78125 152.49023 375.78125 C 155.06017 375.78125 157.12891 373.71252 157.12891 371.14258 L 157.12891 362.19141 C 157.12891 359.62146 155.06017 357.55273 152.49023 357.55273 C 152.47685 357.55273 152.46453 357.55653 152.45117 357.55664 L 142.09961 357.55664 L 142.09961 352.88281 C 142.09961 350.31287 140.03088 348.24414 137.46094 348.24414 z "
       transform="scale(0.26458333)" />
    <ellipse
       style="fill:none;fill-rule:evenodd;stroke:#000000;stroke-width:0.26458333;stroke-linecap:round;stroke-linejoin:round;stroke-miterlimit:4;stroke-dasharray:none;stroke-opacity:1"
       id="ellipse904"
       cx="36.909374"
       cy="98.462845"
       rx="1.2262119"
       ry="1.226212" />
    <ellipse
       style="fill:none;fill-rule:evenodd;stroke:#000000;stroke-width:0.26458333;stroke-linecap:round;stroke-linejoin:round;stroke-miterlimit:4;stroke-dasharray:none;stroke-opacity:1"
       id="ellipse906"
       cx="39.819794"
       cy="93.171181"
       rx="1.2262119"
       ry="1.226212" />
    <rect
       style="fill:none;fill-rule:evenodd;stroke:#000000;stroke-width:0.26458333;stroke-linecap:round;stroke-linejoin:round;stroke-miterlimit:4;stroke-dasharray:none;stroke-opacity:1"
       id="rect936"
       width="6.3693252"
       height="3.0620329"
       x="-68.056793"
       y="-82.465202"
       ry="1.5310165"
       transform="scale(-1)" />
    <ellipse
       style="fill:none;fill-rule:evenodd;stroke:#000000;stroke-width:0.26458333;stroke-linecap:round;stroke-linejoin:round;stroke-miterlimit:4;stroke-dasharray:none;stroke-opacity:1"
       id="ellipse938"
       cx="-66.525772"
       cy="-84.241478"
       rx="1.5327649"
       ry="1.5327648"
       transform="scale(-1)" />
    <ellipse
       style="fill:none;fill-rule:evenodd;stroke:#000000;stroke-width:0.26458333;stroke-linecap:round;stroke-linejoin:round;stroke-miterlimit:4;stroke-dasharray:none;stroke-opacity:1"
       id="ellipse940"
       cx="-63.218483"
       cy="-84.241478"
       rx="1.5327649"
       ry="1.5327648"
       transform="scale(-1)" />
    <path
       id="path942"
       style="fill:none;fill-rule:evenodd;stroke:#000000;stroke-width:0.26458333;stroke-linecap:round;stroke-linejoin:round;stroke-miterlimit:4;stroke-dasharray:none;stroke-opacity:1"
       d="m 53.583294,99.050449 c 0.672288,0 1.213363,-0.541076 1.213363,-1.213363 v -3.96875 c 0,-0.08973 -0.01064,-0.176874 -0.02894,-0.260967 -0.09098,-0.581038 -0.587394,-1.02371 -1.194758,-1.02371 h -3.96875 c -0.672285,0 -1.213363,0.541076 -1.213363,1.213363 0,0 0.01894,2.69742 0.01894,4.040064 0,0.672287 0.541076,1.213363 1.213363,1.213363 0.672286,0 1.21049,-0.541081 1.213361,-1.213363 l 0.01206,-2.8267 h 1.521363 v 2.8267 c 3e-6,0.672287 0.541078,1.213363 1.213364,1.213363 z"
       sodipodi:nodetypes="ssscssccssccss" />
    <rect
       style="fill:none;fill-rule:evenodd;stroke:#000000;stroke-width:0.26458333;stroke-linecap:round;stroke-linejoin:round;stroke-miterlimit:4;stroke-dasharray:none;stroke-opacity:1"
       id="rect944"
       width="6.3957791"
       height="2.4270282"
       x="-99.014893"
       y="66.255241"
       ry="1.2135141"
       transform="rotate(-90)" />
    <rect
       style="fill:none;fill-rule:evenodd;stroke:#000000;stroke-width:0.26458333;stroke-linecap:round;stroke-linejoin:round;stroke-miterlimit:4;stroke-dasharray:none;stroke-opacity:1"
       id="rect950"
       width="6.3957791"
       height="2.4270282"
       x="-99.014893"
       y="60.96357"
       ry="1.2135141"
       transform="rotate(-90)" />
    <path
       id="rect952"
       style="fill:none;fill-rule:evenodd;stroke:#000000;stroke-width:0.237789;stroke-linecap:round;stroke-linejoin:round;stroke-miterlimit:4;stroke-dasharray:none;stroke-opacity:1"
       d="m 36.217853,66.170232 c -0.746474,0.182919 -0.963976,0.68097 -1.041666,1.310121 v 3.880339 c 0,0.657312 0.447422,1.186334 1.002817,1.186334 h 4.371585 c 0.555395,0 1.002391,-0.529022 1.002391,-1.186334 l -0.03501,-4.176924 c -0.06881,-0.573651 -0.4793,-1.013536 -0.983606,-1.013536 z m 1.215633,2.361551 c 0.294418,-0.314212 1.652834,-0.294606 1.862195,0 0.21267,0.299262 0.238911,1.387039 0,1.630956 -0.293105,0.299247 -1.602416,0.328218 -1.862195,0 -0.227848,-0.287874 -0.249972,-1.364178 0,-1.630956 z"
       sodipodi:nodetypes="ccsccccscsssss" />
  </g>
</svg>
