<?xml version="1.0" encoding="UTF-8" standalone="no"?>
<!-- Created with Inkscape (http://www.inkscape.org/) -->

<svg
   xmlns:dc="http://purl.org/dc/elements/1.1/"
   xmlns:cc="http://creativecommons.org/ns#"
   xmlns:rdf="http://www.w3.org/1999/02/22-rdf-syntax-ns#"
   xmlns:svg="http://www.w3.org/2000/svg"
   xmlns="http://www.w3.org/2000/svg"
   xmlns:sodipodi="http://sodipodi.sourceforge.net/DTD/sodipodi-0.dtd"
   xmlns:inkscape="http://www.inkscape.org/namespaces/inkscape"
   width="105.83333mm"
   height="79.374992mm"
   viewBox="0 0 105.83333 79.374992"
   version="1.1"
   id="svg8"
   inkscape:version="1.0.1 (c497b03c, 2020-09-10)"
   sodipodi:docname="面の算出.svg">
  <defs
     id="defs2" />
  <sodipodi:namedview
     id="base"
     pagecolor="#ffffff"
     bordercolor="#666666"
     borderopacity="1.0"
     inkscape:pageopacity="0.0"
     inkscape:pageshadow="2"
     inkscape:zoom="0.82508194"
     inkscape:cx="161.49101"
     inkscape:cy="169.07801"
     inkscape:document-units="mm"
     inkscape:current-layer="layer1"
     inkscape:document-rotation="0"
     showgrid="false"
     fit-margin-top="0"
     fit-margin-left="0"
     fit-margin-right="0"
     fit-margin-bottom="0"
     inkscape:window-width="1440"
     inkscape:window-height="847"
     inkscape:window-x="0"
     inkscape:window-y="25"
     inkscape:window-maximized="0" />
  <metadata
     id="metadata5">
    <rdf:RDF>
      <cc:Work
         rdf:about="">
        <dc:format>image/svg+xml</dc:format>
        <dc:type
           rdf:resource="http://purl.org/dc/dcmitype/StillImage" />
        <dc:title></dc:title>
      </cc:Work>
    </rdf:RDF>
  </metadata>
  <g
     inkscape:label="レイヤー 1"
     inkscape:groupmode="layer"
     id="layer1"
     transform="translate(-22.546204,-19.522547)">
    <g
       id="g882">
      <rect
         style="fill:#fff40d;fill-opacity:1;fill-rule:evenodd;stroke:#000000;stroke-width:0.261963;stroke-linejoin:round;stroke-miterlimit:4;stroke-dasharray:none;stroke-opacity:1"
         id="rect835"
         width="26.196369"
         height="26.196369"
         x="-75.33197"
         y="19.653528"
         transform="scale(-1,1)" />
      <path
         d="m 64.094136,37.822889 h -1.240234 v -7.903043 q -0.447862,0.427192 -1.178222,0.854383 -0.723469,0.427192 -1.302245,0.640788 v -1.198893 q 1.040418,-0.489203 1.819009,-1.185111 0.778591,-0.695909 1.10243,-1.350477 h 0.799262 z"
         style="font-style:normal;font-variant:normal;font-weight:normal;font-stretch:normal;font-size:14.1111px;font-family:Arial;-inkscape-font-specification:Arial;text-align:end;writing-mode:tb-rl;text-anchor:end;fill:#000000;fill-opacity:1;fill-rule:evenodd;stroke:none;stroke-width:0.264583;stroke-linejoin:round;stroke-miterlimit:4;stroke-dasharray:none;stroke-opacity:1"
         id="path853" />
    </g>
    <g
       id="g878">
      <rect
         style="fill:#fff40d;fill-opacity:1;fill-rule:evenodd;stroke:#000000;stroke-width:0.261963;stroke-linejoin:round;stroke-miterlimit:4;stroke-dasharray:none;stroke-opacity:1"
         id="rect839"
         width="26.196369"
         height="26.196369"
         x="-101.79022"
         y="46.11179"
         transform="scale(-1,1)" />
      <path
         d="m 92.030884,63.089149 v 1.192002 h -6.67659 q -0.01378,-0.447862 0.144694,-0.861273 0.254937,-0.682129 0.813042,-1.343587 0.564995,-0.661457 1.626084,-1.529621 1.646754,-1.350476 2.22553,-2.135957 0.578775,-0.792372 0.578775,-1.495171 0,-0.737249 -0.530544,-1.240233 -0.523654,-0.509874 -1.371147,-0.509874 -0.895724,0 -1.433159,0.537435 -0.537434,0.537434 -0.544324,1.48828 L 85.58856,57.060236 q 0.130914,-1.426268 0.985297,-2.170408 0.854383,-0.75103 2.294432,-0.75103 1.453829,0 2.301322,0.806151 0.847493,0.806152 0.847493,1.998154 0,0.606337 -0.248047,1.192002 -0.248047,0.585666 -0.826822,1.233344 -0.571886,0.647677 -1.908582,1.777667 -1.11621,0.937066 -1.433158,1.274685 -0.316949,0.330729 -0.523654,0.668348 z"
         style="font-style:normal;font-variant:normal;font-weight:normal;font-stretch:normal;font-size:14.1111px;font-family:Arial;-inkscape-font-specification:Arial;text-align:end;writing-mode:tb-rl;text-anchor:end;fill:#000000;fill-opacity:1;fill-rule:evenodd;stroke:none;stroke-width:0.264583;stroke-linejoin:round;stroke-miterlimit:4;stroke-dasharray:none;stroke-opacity:1"
         id="path855" />
    </g>
    <g
       id="g890">
      <rect
         style="fill:#fff40d;fill-opacity:1;fill-rule:evenodd;stroke:#000000;stroke-width:0.261963;stroke-linejoin:round;stroke-miterlimit:4;stroke-dasharray:none;stroke-opacity:1"
         id="rect837"
         width="26.196369"
         height="26.196369"
         x="-75.33197"
         y="72.57019"
         transform="scale(-1,1)" />
      <path
         d="m 58.926497,87.983478 1.240234,-0.165365 q 0.213595,1.054199 0.723469,1.522731 0.516764,0.461643 1.254014,0.461643 0.875053,0 1.4745,-0.606337 0.606336,-0.606336 0.606336,-1.50206 0,-0.854383 -0.558105,-1.405598 -0.558105,-0.558105 -1.419378,-0.558105 -0.3514,0 -0.875054,0.137804 l 0.137804,-1.08865 q 0.124023,0.01378 0.199815,0.01378 0.792372,0 1.426269,-0.413411 0.633897,-0.413411 0.633897,-1.274684 0,-0.682128 -0.461643,-1.129991 -0.461642,-0.447862 -1.192002,-0.447862 -0.723469,0 -1.205782,0.454753 -0.482313,0.454752 -0.620117,1.364256 l -1.240233,-0.220486 q 0.227376,-1.247123 1.033527,-1.929252 0.806152,-0.689018 2.005044,-0.689018 0.826823,0 1.522731,0.35829 0.695909,0.351399 1.061089,0.964626 0.37207,0.613226 0.37207,1.302245 0,0.654567 -0.351399,1.192002 -0.3514,0.537434 -1.040418,0.854383 0.895724,0.206705 1.391817,0.861273 0.496093,0.647677 0.496093,1.626084 0,1.322915 -0.964626,2.2462 -0.964626,0.916395 -2.439125,0.916395 -1.329806,0 -2.21175,-0.792371 -0.875053,-0.792372 -0.999077,-2.053275 z"
         style="font-style:normal;font-variant:normal;font-weight:normal;font-stretch:normal;font-size:14.1111px;font-family:Arial;-inkscape-font-specification:Arial;text-align:end;writing-mode:tb-rl;text-anchor:end;fill:#000000;fill-opacity:1;fill-rule:evenodd;stroke:none;stroke-width:0.264583;stroke-linejoin:round;stroke-miterlimit:4;stroke-dasharray:none;stroke-opacity:1"
         id="path857" />
    </g>
    <g
       id="g894">
      <rect
         style="fill:#fff40d;fill-opacity:1;fill-rule:evenodd;stroke:#000000;stroke-width:0.261963;stroke-linejoin:round;stroke-miterlimit:4;stroke-dasharray:none;stroke-opacity:1"
         id="rect841"
         width="26.196369"
         height="26.196369"
         x="-48.873554"
         y="46.11179"
         transform="scale(-1,1)" />
      <path
         d="m 36.664204,64.26048 v -2.418455 h -4.382158 v -1.13688 l 4.609534,-6.545677 h 1.012857 v 6.545677 h 1.364257 v 1.13688 h -1.364257 v 2.418455 z m 0,-3.555335 v -4.554413 l -3.162595,4.554413 z"
         style="font-style:normal;font-variant:normal;font-weight:normal;font-stretch:normal;font-size:14.1111px;font-family:Arial;-inkscape-font-specification:Arial;text-align:end;writing-mode:tb-rl;text-anchor:end;fill:#000000;fill-opacity:1;fill-rule:evenodd;stroke:none;stroke-width:0.264583;stroke-linejoin:round;stroke-miterlimit:4;stroke-dasharray:none;stroke-opacity:1"
         id="path859" />
    </g>
    <g
       id="g874">
      <rect
         style="fill:#fff40d;fill-opacity:1;fill-rule:evenodd;stroke:#000000;stroke-width:0.261963;stroke-linejoin:round;stroke-miterlimit:4;stroke-dasharray:none;stroke-opacity:1"
         id="rect843"
         width="26.196369"
         height="26.196369"
         x="-128.24855"
         y="46.11179"
         transform="scale(-1,1)" />
      <path
         d="m 111.80174,61.45962 1.30224,-0.110243 q 0.14469,0.950846 0.66835,1.433159 0.53054,0.475422 1.27468,0.475422 0.89573,0 1.51584,-0.675238 0.62012,-0.675238 0.62012,-1.791448 0,-1.061089 -0.59945,-1.674315 -0.59255,-0.613227 -1.55718,-0.613227 -0.59944,0 -1.08176,0.275608 -0.48231,0.268717 -0.75792,0.702799 l -1.16444,-0.151584 0.97841,-5.18831 h 5.02294 v 1.185112 h -4.03076 l -0.54432,2.714733 q 0.9095,-0.633897 1.90858,-0.633897 1.32292,0 2.23242,0.916394 0.90951,0.916395 0.90951,2.356444 0,1.371147 -0.79927,2.370224 -0.97151,1.226453 -2.65272,1.226453 -1.37803,0 -2.25309,-0.771701 -0.86816,-0.771701 -0.99218,-2.046385 z"
         style="font-style:normal;font-variant:normal;font-weight:normal;font-stretch:normal;font-size:14.1111px;font-family:Arial;-inkscape-font-specification:Arial;text-align:end;writing-mode:tb-rl;text-anchor:end;fill:#000000;fill-opacity:1;fill-rule:evenodd;stroke:none;stroke-width:0.264583;stroke-linejoin:round;stroke-miterlimit:4;stroke-dasharray:none;stroke-opacity:1"
         id="path861" />
    </g>
    <g
       id="g886">
      <rect
         style="fill:#fff40d;fill-opacity:1;fill-rule:evenodd;stroke:#000000;stroke-width:0.261963;stroke-linejoin:round;stroke-miterlimit:4;stroke-dasharray:none;stroke-opacity:1"
         id="rect833"
         width="26.196369"
         height="26.196369"
         x="-75.33197"
         y="46.11179"
         transform="scale(-1,1)" />
      <path
         d="m 58.940277,59.213419 q 0,-1.791449 0.36518,-2.880098 0.37207,-1.09554 1.095539,-1.688095 0.73036,-0.592556 1.83279,-0.592556 0.813042,0 1.426268,0.330728 0.613227,0.323839 1.012857,0.943956 0.399631,0.613226 0.627007,1.50206 0.227376,0.881944 0.227376,2.384005 0,1.777668 -0.365179,2.873207 -0.36518,1.088649 -1.09554,1.688096 -0.723469,0.592556 -1.832789,0.592556 -1.46072,0 -2.294432,-1.047309 -0.999077,-1.260904 -0.999077,-4.10655 z m 1.274684,0 q 0,2.487357 0.578776,3.314179 0.585666,0.819932 1.440049,0.819932 0.854383,0 1.433158,-0.826822 0.585666,-0.826823 0.585666,-3.307289 0,-2.494248 -0.585666,-3.31418 -0.578775,-0.819932 -1.446939,-0.819932 -0.854383,0 -1.364256,0.72347 -0.640788,0.923285 -0.640788,3.410642 z"
         style="font-style:normal;font-variant:normal;font-weight:normal;font-stretch:normal;font-size:14.1111px;font-family:Arial;-inkscape-font-specification:Arial;text-align:end;writing-mode:tb-rl;text-anchor:end;fill:#000000;fill-opacity:1;fill-rule:evenodd;stroke:none;stroke-width:0.264583;stroke-linejoin:round;stroke-miterlimit:4;stroke-dasharray:none;stroke-opacity:1"
         id="path863" />
    </g>
    <g
       id="g936"
       transform="translate(0,132.29167)">
      <rect
         style="fill:#fff40d;fill-opacity:1;fill-rule:evenodd;stroke:#000000;stroke-width:0.261963;stroke-linejoin:round;stroke-miterlimit:4;stroke-dasharray:none;stroke-opacity:1"
         id="rect932"
         width="26.196369"
         height="26.196369"
         x="-75.33197"
         y="19.653528"
         transform="scale(-1,1)" />
      <path
         d="m 64.094136,37.822889 h -1.240234 v -7.903043 q -0.447862,0.427192 -1.178222,0.854383 -0.723469,0.427192 -1.302245,0.640788 v -1.198893 q 1.040418,-0.489203 1.819009,-1.185111 0.778591,-0.695909 1.10243,-1.350477 h 0.799262 z"
         style="font-style:normal;font-variant:normal;font-weight:normal;font-stretch:normal;font-size:14.1111px;font-family:Arial;-inkscape-font-specification:Arial;text-align:end;writing-mode:tb-rl;text-anchor:end;fill:#000000;fill-opacity:1;fill-rule:evenodd;stroke:none;stroke-width:0.264583;stroke-linejoin:round;stroke-miterlimit:4;stroke-dasharray:none;stroke-opacity:1"
         id="path934" />
    </g>
    <g
       id="g942"
       transform="translate(0,105.83333)">
      <rect
         style="fill:#fff40d;fill-opacity:1;fill-rule:evenodd;stroke:#000000;stroke-width:0.261963;stroke-linejoin:round;stroke-miterlimit:4;stroke-dasharray:none;stroke-opacity:1"
         id="rect938"
         width="26.196369"
         height="26.196369"
         x="-101.79022"
         y="46.11179"
         transform="scale(-1,1)" />
      <path
         d="m 92.030884,63.089149 v 1.192002 h -6.67659 q -0.01378,-0.447862 0.144694,-0.861273 0.254937,-0.682129 0.813042,-1.343587 0.564995,-0.661457 1.626084,-1.529621 1.646754,-1.350476 2.22553,-2.135957 0.578775,-0.792372 0.578775,-1.495171 0,-0.737249 -0.530544,-1.240233 -0.523654,-0.509874 -1.371147,-0.509874 -0.895724,0 -1.433159,0.537435 -0.537434,0.537434 -0.544324,1.48828 L 85.58856,57.060236 q 0.130914,-1.426268 0.985297,-2.170408 0.854383,-0.75103 2.294432,-0.75103 1.453829,0 2.301322,0.806151 0.847493,0.806152 0.847493,1.998154 0,0.606337 -0.248047,1.192002 -0.248047,0.585666 -0.826822,1.233344 -0.571886,0.647677 -1.908582,1.777667 -1.11621,0.937066 -1.433158,1.274685 -0.316949,0.330729 -0.523654,0.668348 z"
         style="font-style:normal;font-variant:normal;font-weight:normal;font-stretch:normal;font-size:14.1111px;font-family:Arial;-inkscape-font-specification:Arial;text-align:end;writing-mode:tb-rl;text-anchor:end;fill:#000000;fill-opacity:1;fill-rule:evenodd;stroke:none;stroke-width:0.264583;stroke-linejoin:round;stroke-miterlimit:4;stroke-dasharray:none;stroke-opacity:1"
         id="path940" />
    </g>
    <g
       id="g948"
       transform="translate(0,52.916671)">
      <rect
         style="fill:#fff40d;fill-opacity:1;fill-rule:evenodd;stroke:#000000;stroke-width:0.261963;stroke-linejoin:round;stroke-miterlimit:4;stroke-dasharray:none;stroke-opacity:1"
         id="rect944"
         width="26.196369"
         height="26.196369"
         x="-75.33197"
         y="72.57019"
         transform="scale(-1,1)" />
      <path
         d="m 58.926497,87.983478 1.240234,-0.165365 q 0.213595,1.054199 0.723469,1.522731 0.516764,0.461643 1.254014,0.461643 0.875053,0 1.4745,-0.606337 0.606336,-0.606336 0.606336,-1.50206 0,-0.854383 -0.558105,-1.405598 -0.558105,-0.558105 -1.419378,-0.558105 -0.3514,0 -0.875054,0.137804 l 0.137804,-1.08865 q 0.124023,0.01378 0.199815,0.01378 0.792372,0 1.426269,-0.413411 0.633897,-0.413411 0.633897,-1.274684 0,-0.682128 -0.461643,-1.129991 -0.461642,-0.447862 -1.192002,-0.447862 -0.723469,0 -1.205782,0.454753 -0.482313,0.454752 -0.620117,1.364256 l -1.240233,-0.220486 q 0.227376,-1.247123 1.033527,-1.929252 0.806152,-0.689018 2.005044,-0.689018 0.826823,0 1.522731,0.35829 0.695909,0.351399 1.061089,0.964626 0.37207,0.613226 0.37207,1.302245 0,0.654567 -0.351399,1.192002 -0.3514,0.537434 -1.040418,0.854383 0.895724,0.206705 1.391817,0.861273 0.496093,0.647677 0.496093,1.626084 0,1.322915 -0.964626,2.2462 -0.964626,0.916395 -2.439125,0.916395 -1.329806,0 -2.21175,-0.792371 -0.875053,-0.792372 -0.999077,-2.053275 z"
         style="font-style:normal;font-variant:normal;font-weight:normal;font-stretch:normal;font-size:14.1111px;font-family:Arial;-inkscape-font-specification:Arial;text-align:end;writing-mode:tb-rl;text-anchor:end;fill:#000000;fill-opacity:1;fill-rule:evenodd;stroke:none;stroke-width:0.264583;stroke-linejoin:round;stroke-miterlimit:4;stroke-dasharray:none;stroke-opacity:1"
         id="path946" />
    </g>
    <g
       id="g954"
       transform="translate(0,105.83333)">
      <rect
         style="fill:#fff40d;fill-opacity:1;fill-rule:evenodd;stroke:#000000;stroke-width:0.261963;stroke-linejoin:round;stroke-miterlimit:4;stroke-dasharray:none;stroke-opacity:1"
         id="rect950"
         width="26.196369"
         height="26.196369"
         x="-48.873554"
         y="46.11179"
         transform="scale(-1,1)" />
      <path
         d="m 36.664204,64.26048 v -2.418455 h -4.382158 v -1.13688 l 4.609534,-6.545677 h 1.012857 v 6.545677 h 1.364257 v 1.13688 h -1.364257 v 2.418455 z m 0,-3.555335 v -4.554413 l -3.162595,4.554413 z"
         style="font-style:normal;font-variant:normal;font-weight:normal;font-stretch:normal;font-size:14.1111px;font-family:Arial;-inkscape-font-specification:Arial;text-align:end;writing-mode:tb-rl;text-anchor:end;fill:#000000;fill-opacity:1;fill-rule:evenodd;stroke:none;stroke-width:0.264583;stroke-linejoin:round;stroke-miterlimit:4;stroke-dasharray:none;stroke-opacity:1"
         id="path952" />
    </g>
    <g
       id="g960"
       transform="translate(0,105.83333)">
      <rect
         style="fill:#fff40d;fill-opacity:1;fill-rule:evenodd;stroke:#000000;stroke-width:0.261963;stroke-linejoin:round;stroke-miterlimit:4;stroke-dasharray:none;stroke-opacity:1"
         id="rect956"
         width="26.196369"
         height="26.196369"
         x="-128.24855"
         y="46.11179"
         transform="scale(-1,1)" />
      <path
         d="m 111.80174,61.45962 1.30224,-0.110243 q 0.14469,0.950846 0.66835,1.433159 0.53054,0.475422 1.27468,0.475422 0.89573,0 1.51584,-0.675238 0.62012,-0.675238 0.62012,-1.791448 0,-1.061089 -0.59945,-1.674315 -0.59255,-0.613227 -1.55718,-0.613227 -0.59944,0 -1.08176,0.275608 -0.48231,0.268717 -0.75792,0.702799 l -1.16444,-0.151584 0.97841,-5.18831 h 5.02294 v 1.185112 h -4.03076 l -0.54432,2.714733 q 0.9095,-0.633897 1.90858,-0.633897 1.32292,0 2.23242,0.916394 0.90951,0.916395 0.90951,2.356444 0,1.371147 -0.79927,2.370224 -0.97151,1.226453 -2.65272,1.226453 -1.37803,0 -2.25309,-0.771701 -0.86816,-0.771701 -0.99218,-2.046385 z"
         style="font-style:normal;font-variant:normal;font-weight:normal;font-stretch:normal;font-size:14.1111px;font-family:Arial;-inkscape-font-specification:Arial;text-align:end;writing-mode:tb-rl;text-anchor:end;fill:#000000;fill-opacity:1;fill-rule:evenodd;stroke:none;stroke-width:0.264583;stroke-linejoin:round;stroke-miterlimit:4;stroke-dasharray:none;stroke-opacity:1"
         id="path958" />
    </g>
    <g
       id="g966"
       transform="translate(0,132.29167)">
      <rect
         style="fill:#fff40d;fill-opacity:1;fill-rule:evenodd;stroke:#000000;stroke-width:0.261963;stroke-linejoin:round;stroke-miterlimit:4;stroke-dasharray:none;stroke-opacity:1"
         id="rect962"
         width="26.196369"
         height="26.196369"
         x="-75.33197"
         y="46.11179"
         transform="scale(-1,1)" />
      <path
         d="m 58.940277,59.213419 q 0,-1.791449 0.36518,-2.880098 0.37207,-1.09554 1.095539,-1.688095 0.73036,-0.592556 1.83279,-0.592556 0.813042,0 1.426268,0.330728 0.613227,0.323839 1.012857,0.943956 0.399631,0.613226 0.627007,1.50206 0.227376,0.881944 0.227376,2.384005 0,1.777668 -0.365179,2.873207 -0.36518,1.088649 -1.09554,1.688096 -0.723469,0.592556 -1.832789,0.592556 -1.46072,0 -2.294432,-1.047309 -0.999077,-1.260904 -0.999077,-4.10655 z m 1.274684,0 q 0,2.487357 0.578776,3.314179 0.585666,0.819932 1.440049,0.819932 0.854383,0 1.433158,-0.826822 0.585666,-0.826823 0.585666,-3.307289 0,-2.494248 -0.585666,-3.31418 -0.578775,-0.819932 -1.446939,-0.819932 -0.854383,0 -1.364256,0.72347 -0.640788,0.923285 -0.640788,3.410642 z"
         style="font-style:normal;font-variant:normal;font-weight:normal;font-stretch:normal;font-size:14.1111px;font-family:Arial;-inkscape-font-specification:Arial;text-align:end;writing-mode:tb-rl;text-anchor:end;fill:#000000;fill-opacity:1;fill-rule:evenodd;stroke:none;stroke-width:0.264583;stroke-linejoin:round;stroke-miterlimit:4;stroke-dasharray:none;stroke-opacity:1"
         id="path964" />
    </g>
    <g
       id="g972"
       transform="translate(0,264.58334)">
      <rect
         style="fill:#fff40d;fill-opacity:1;fill-rule:evenodd;stroke:#000000;stroke-width:0.261963;stroke-linejoin:round;stroke-miterlimit:4;stroke-dasharray:none;stroke-opacity:1"
         id="rect968"
         width="26.196369"
         height="26.196369"
         x="-75.33197"
         y="19.653528"
         transform="scale(-1,1)" />
      <path
         d="m 64.094136,37.822889 h -1.240234 v -7.903043 q -0.447862,0.427192 -1.178222,0.854383 -0.723469,0.427192 -1.302245,0.640788 v -1.198893 q 1.040418,-0.489203 1.819009,-1.185111 0.778591,-0.695909 1.10243,-1.350477 h 0.799262 z"
         style="font-style:normal;font-variant:normal;font-weight:normal;font-stretch:normal;font-size:14.1111px;font-family:Arial;-inkscape-font-specification:Arial;text-align:end;writing-mode:tb-rl;text-anchor:end;fill:#000000;fill-opacity:1;fill-rule:evenodd;stroke:none;stroke-width:0.264583;stroke-linejoin:round;stroke-miterlimit:4;stroke-dasharray:none;stroke-opacity:1"
         id="path970" />
    </g>
    <g
       id="g978"
       transform="translate(0,211.66666)">
      <rect
         style="fill:#fff40d;fill-opacity:1;fill-rule:evenodd;stroke:#000000;stroke-width:0.261963;stroke-linejoin:round;stroke-miterlimit:4;stroke-dasharray:none;stroke-opacity:1"
         id="rect974"
         width="26.196369"
         height="26.196369"
         x="-101.79022"
         y="46.11179"
         transform="scale(-1,1)" />
      <path
         d="m 92.030884,63.089149 v 1.192002 h -6.67659 q -0.01378,-0.447862 0.144694,-0.861273 0.254937,-0.682129 0.813042,-1.343587 0.564995,-0.661457 1.626084,-1.529621 1.646754,-1.350476 2.22553,-2.135957 0.578775,-0.792372 0.578775,-1.495171 0,-0.737249 -0.530544,-1.240233 -0.523654,-0.509874 -1.371147,-0.509874 -0.895724,0 -1.433159,0.537435 -0.537434,0.537434 -0.544324,1.48828 L 85.58856,57.060236 q 0.130914,-1.426268 0.985297,-2.170408 0.854383,-0.75103 2.294432,-0.75103 1.453829,0 2.301322,0.806151 0.847493,0.806152 0.847493,1.998154 0,0.606337 -0.248047,1.192002 -0.248047,0.585666 -0.826822,1.233344 -0.571886,0.647677 -1.908582,1.777667 -1.11621,0.937066 -1.433158,1.274685 -0.316949,0.330729 -0.523654,0.668348 z"
         style="font-style:normal;font-variant:normal;font-weight:normal;font-stretch:normal;font-size:14.1111px;font-family:Arial;-inkscape-font-specification:Arial;text-align:end;writing-mode:tb-rl;text-anchor:end;fill:#000000;fill-opacity:1;fill-rule:evenodd;stroke:none;stroke-width:0.264583;stroke-linejoin:round;stroke-miterlimit:4;stroke-dasharray:none;stroke-opacity:1"
         id="path976" />
    </g>
    <g
       id="g984"
       transform="translate(0,185.20834)">
      <rect
         style="fill:#fff40d;fill-opacity:1;fill-rule:evenodd;stroke:#000000;stroke-width:0.261963;stroke-linejoin:round;stroke-miterlimit:4;stroke-dasharray:none;stroke-opacity:1"
         id="rect980"
         width="26.196369"
         height="26.196369"
         x="-75.33197"
         y="72.57019"
         transform="scale(-1,1)" />
      <path
         d="m 58.926497,87.983478 1.240234,-0.165365 q 0.213595,1.054199 0.723469,1.522731 0.516764,0.461643 1.254014,0.461643 0.875053,0 1.4745,-0.606337 0.606336,-0.606336 0.606336,-1.50206 0,-0.854383 -0.558105,-1.405598 -0.558105,-0.558105 -1.419378,-0.558105 -0.3514,0 -0.875054,0.137804 l 0.137804,-1.08865 q 0.124023,0.01378 0.199815,0.01378 0.792372,0 1.426269,-0.413411 0.633897,-0.413411 0.633897,-1.274684 0,-0.682128 -0.461643,-1.129991 -0.461642,-0.447862 -1.192002,-0.447862 -0.723469,0 -1.205782,0.454753 -0.482313,0.454752 -0.620117,1.364256 l -1.240233,-0.220486 q 0.227376,-1.247123 1.033527,-1.929252 0.806152,-0.689018 2.005044,-0.689018 0.826823,0 1.522731,0.35829 0.695909,0.351399 1.061089,0.964626 0.37207,0.613226 0.37207,1.302245 0,0.654567 -0.351399,1.192002 -0.3514,0.537434 -1.040418,0.854383 0.895724,0.206705 1.391817,0.861273 0.496093,0.647677 0.496093,1.626084 0,1.322915 -0.964626,2.2462 -0.964626,0.916395 -2.439125,0.916395 -1.329806,0 -2.21175,-0.792371 -0.875053,-0.792372 -0.999077,-2.053275 z"
         style="font-style:normal;font-variant:normal;font-weight:normal;font-stretch:normal;font-size:14.1111px;font-family:Arial;-inkscape-font-specification:Arial;text-align:end;writing-mode:tb-rl;text-anchor:end;fill:#000000;fill-opacity:1;fill-rule:evenodd;stroke:none;stroke-width:0.264583;stroke-linejoin:round;stroke-miterlimit:4;stroke-dasharray:none;stroke-opacity:1"
         id="path982" />
    </g>
    <g
       id="g990"
       transform="translate(0,211.66666)">
      <rect
         style="fill:#fff40d;fill-opacity:1;fill-rule:evenodd;stroke:#000000;stroke-width:0.261963;stroke-linejoin:round;stroke-miterlimit:4;stroke-dasharray:none;stroke-opacity:1"
         id="rect986"
         width="26.196369"
         height="26.196369"
         x="-48.873554"
         y="46.11179"
         transform="scale(-1,1)" />
      <path
         d="m 36.664204,64.26048 v -2.418455 h -4.382158 v -1.13688 l 4.609534,-6.545677 h 1.012857 v 6.545677 h 1.364257 v 1.13688 h -1.364257 v 2.418455 z m 0,-3.555335 v -4.554413 l -3.162595,4.554413 z"
         style="font-style:normal;font-variant:normal;font-weight:normal;font-stretch:normal;font-size:14.1111px;font-family:Arial;-inkscape-font-specification:Arial;text-align:end;writing-mode:tb-rl;text-anchor:end;fill:#000000;fill-opacity:1;fill-rule:evenodd;stroke:none;stroke-width:0.264583;stroke-linejoin:round;stroke-miterlimit:4;stroke-dasharray:none;stroke-opacity:1"
         id="path988" />
    </g>
    <g
       id="g996"
       transform="translate(0,211.66666)">
      <rect
         style="fill:#fff40d;fill-opacity:1;fill-rule:evenodd;stroke:#000000;stroke-width:0.261963;stroke-linejoin:round;stroke-miterlimit:4;stroke-dasharray:none;stroke-opacity:1"
         id="rect992"
         width="26.196369"
         height="26.196369"
         x="-128.24855"
         y="46.11179"
         transform="scale(-1,1)" />
      <path
         d="m 111.80174,61.45962 1.30224,-0.110243 q 0.14469,0.950846 0.66835,1.433159 0.53054,0.475422 1.27468,0.475422 0.89573,0 1.51584,-0.675238 0.62012,-0.675238 0.62012,-1.791448 0,-1.061089 -0.59945,-1.674315 -0.59255,-0.613227 -1.55718,-0.613227 -0.59944,0 -1.08176,0.275608 -0.48231,0.268717 -0.75792,0.702799 l -1.16444,-0.151584 0.97841,-5.18831 h 5.02294 v 1.185112 h -4.03076 l -0.54432,2.714733 q 0.9095,-0.633897 1.90858,-0.633897 1.32292,0 2.23242,0.916394 0.90951,0.916395 0.90951,2.356444 0,1.371147 -0.79927,2.370224 -0.97151,1.226453 -2.65272,1.226453 -1.37803,0 -2.25309,-0.771701 -0.86816,-0.771701 -0.99218,-2.046385 z"
         style="font-style:normal;font-variant:normal;font-weight:normal;font-stretch:normal;font-size:14.1111px;font-family:Arial;-inkscape-font-specification:Arial;text-align:end;writing-mode:tb-rl;text-anchor:end;fill:#000000;fill-opacity:1;fill-rule:evenodd;stroke:none;stroke-width:0.264583;stroke-linejoin:round;stroke-miterlimit:4;stroke-dasharray:none;stroke-opacity:1"
         id="path994" />
    </g>
    <g
       id="g1002"
       transform="translate(0,185.20841)">
      <rect
         style="fill:#fff40d;fill-opacity:1;fill-rule:evenodd;stroke:#000000;stroke-width:0.261963;stroke-linejoin:round;stroke-miterlimit:4;stroke-dasharray:none;stroke-opacity:1"
         id="rect998"
         width="26.196369"
         height="26.196369"
         x="-75.33197"
         y="46.11179"
         transform="scale(-1,1)" />
      <path
         d="m 58.940277,59.213419 q 0,-1.791449 0.36518,-2.880098 0.37207,-1.09554 1.095539,-1.688095 0.73036,-0.592556 1.83279,-0.592556 0.813042,0 1.426268,0.330728 0.613227,0.323839 1.012857,0.943956 0.399631,0.613226 0.627007,1.50206 0.227376,0.881944 0.227376,2.384005 0,1.777668 -0.365179,2.873207 -0.36518,1.088649 -1.09554,1.688096 -0.723469,0.592556 -1.832789,0.592556 -1.46072,0 -2.294432,-1.047309 -0.999077,-1.260904 -0.999077,-4.10655 z m 1.274684,0 q 0,2.487357 0.578776,3.314179 0.585666,0.819932 1.440049,0.819932 0.854383,0 1.433158,-0.826822 0.585666,-0.826823 0.585666,-3.307289 0,-2.494248 -0.585666,-3.31418 -0.578775,-0.819932 -1.446939,-0.819932 -0.854383,0 -1.364256,0.72347 -0.640788,0.923285 -0.640788,3.410642 z"
         style="font-style:normal;font-variant:normal;font-weight:normal;font-stretch:normal;font-size:14.1111px;font-family:Arial;-inkscape-font-specification:Arial;text-align:end;writing-mode:tb-rl;text-anchor:end;fill:#000000;fill-opacity:1;fill-rule:evenodd;stroke:none;stroke-width:0.264583;stroke-linejoin:round;stroke-miterlimit:4;stroke-dasharray:none;stroke-opacity:1"
         id="path1000" />
    </g>
    <g
       id="g1008"
       transform="translate(132.29167)">
      <rect
         style="fill:#fff40d;fill-opacity:1;fill-rule:evenodd;stroke:#000000;stroke-width:0.261963;stroke-linejoin:round;stroke-miterlimit:4;stroke-dasharray:none;stroke-opacity:1"
         id="rect1004"
         width="26.196369"
         height="26.196369"
         x="-75.33197"
         y="19.653528"
         transform="scale(-1,1)" />
      <path
         d="m 64.094136,37.822889 h -1.240234 v -7.903043 q -0.447862,0.427192 -1.178222,0.854383 -0.723469,0.427192 -1.302245,0.640788 v -1.198893 q 1.040418,-0.489203 1.819009,-1.185111 0.778591,-0.695909 1.10243,-1.350477 h 0.799262 z"
         style="font-style:normal;font-variant:normal;font-weight:normal;font-stretch:normal;font-size:14.1111px;font-family:Arial;-inkscape-font-specification:Arial;text-align:end;writing-mode:tb-rl;text-anchor:end;fill:#000000;fill-opacity:1;fill-rule:evenodd;stroke:none;stroke-width:0.264583;stroke-linejoin:round;stroke-miterlimit:4;stroke-dasharray:none;stroke-opacity:1"
         id="path1006" />
    </g>
    <g
       id="g1014"
       transform="translate(158.75)">
      <rect
         style="fill:#fff40d;fill-opacity:1;fill-rule:evenodd;stroke:#000000;stroke-width:0.261963;stroke-linejoin:round;stroke-miterlimit:4;stroke-dasharray:none;stroke-opacity:1"
         id="rect1010"
         width="26.196369"
         height="26.196369"
         x="-101.79022"
         y="46.11179"
         transform="scale(-1,1)" />
      <path
         d="m 92.030884,63.089149 v 1.192002 h -6.67659 q -0.01378,-0.447862 0.144694,-0.861273 0.254937,-0.682129 0.813042,-1.343587 0.564995,-0.661457 1.626084,-1.529621 1.646754,-1.350476 2.22553,-2.135957 0.578775,-0.792372 0.578775,-1.495171 0,-0.737249 -0.530544,-1.240233 -0.523654,-0.509874 -1.371147,-0.509874 -0.895724,0 -1.433159,0.537435 -0.537434,0.537434 -0.544324,1.48828 L 85.58856,57.060236 q 0.130914,-1.426268 0.985297,-2.170408 0.854383,-0.75103 2.294432,-0.75103 1.453829,0 2.301322,0.806151 0.847493,0.806152 0.847493,1.998154 0,0.606337 -0.248047,1.192002 -0.248047,0.585666 -0.826822,1.233344 -0.571886,0.647677 -1.908582,1.777667 -1.11621,0.937066 -1.433158,1.274685 -0.316949,0.330729 -0.523654,0.668348 z"
         style="font-style:normal;font-variant:normal;font-weight:normal;font-stretch:normal;font-size:14.1111px;font-family:Arial;-inkscape-font-specification:Arial;text-align:end;writing-mode:tb-rl;text-anchor:end;fill:#000000;fill-opacity:1;fill-rule:evenodd;stroke:none;stroke-width:0.264583;stroke-linejoin:round;stroke-miterlimit:4;stroke-dasharray:none;stroke-opacity:1"
         id="path1012" />
    </g>
    <g
       id="g1020"
       transform="translate(132.29167)">
      <rect
         style="fill:#fff40d;fill-opacity:1;fill-rule:evenodd;stroke:#000000;stroke-width:0.261963;stroke-linejoin:round;stroke-miterlimit:4;stroke-dasharray:none;stroke-opacity:1"
         id="rect1016"
         width="26.196369"
         height="26.196369"
         x="-75.33197"
         y="72.57019"
         transform="scale(-1,1)" />
      <path
         d="m 58.926497,87.983478 1.240234,-0.165365 q 0.213595,1.054199 0.723469,1.522731 0.516764,0.461643 1.254014,0.461643 0.875053,0 1.4745,-0.606337 0.606336,-0.606336 0.606336,-1.50206 0,-0.854383 -0.558105,-1.405598 -0.558105,-0.558105 -1.419378,-0.558105 -0.3514,0 -0.875054,0.137804 l 0.137804,-1.08865 q 0.124023,0.01378 0.199815,0.01378 0.792372,0 1.426269,-0.413411 0.633897,-0.413411 0.633897,-1.274684 0,-0.682128 -0.461643,-1.129991 -0.461642,-0.447862 -1.192002,-0.447862 -0.723469,0 -1.205782,0.454753 -0.482313,0.454752 -0.620117,1.364256 l -1.240233,-0.220486 q 0.227376,-1.247123 1.033527,-1.929252 0.806152,-0.689018 2.005044,-0.689018 0.826823,0 1.522731,0.35829 0.695909,0.351399 1.061089,0.964626 0.37207,0.613226 0.37207,1.302245 0,0.654567 -0.351399,1.192002 -0.3514,0.537434 -1.040418,0.854383 0.895724,0.206705 1.391817,0.861273 0.496093,0.647677 0.496093,1.626084 0,1.322915 -0.964626,2.2462 -0.964626,0.916395 -2.439125,0.916395 -1.329806,0 -2.21175,-0.792371 -0.875053,-0.792372 -0.999077,-2.053275 z"
         style="font-style:normal;font-variant:normal;font-weight:normal;font-stretch:normal;font-size:14.1111px;font-family:Arial;-inkscape-font-specification:Arial;text-align:end;writing-mode:tb-rl;text-anchor:end;fill:#000000;fill-opacity:1;fill-rule:evenodd;stroke:none;stroke-width:0.264583;stroke-linejoin:round;stroke-miterlimit:4;stroke-dasharray:none;stroke-opacity:1"
         id="path1018" />
    </g>
    <g
       id="g1026"
       transform="translate(158.75)">
      <rect
         style="fill:#fff40d;fill-opacity:1;fill-rule:evenodd;stroke:#000000;stroke-width:0.261963;stroke-linejoin:round;stroke-miterlimit:4;stroke-dasharray:none;stroke-opacity:1"
         id="rect1022"
         width="26.196369"
         height="26.196369"
         x="-48.873554"
         y="46.11179"
         transform="scale(-1,1)" />
      <path
         d="m 36.664204,64.26048 v -2.418455 h -4.382158 v -1.13688 l 4.609534,-6.545677 h 1.012857 v 6.545677 h 1.364257 v 1.13688 h -1.364257 v 2.418455 z m 0,-3.555335 v -4.554413 l -3.162595,4.554413 z"
         style="font-style:normal;font-variant:normal;font-weight:normal;font-stretch:normal;font-size:14.1111px;font-family:Arial;-inkscape-font-specification:Arial;text-align:end;writing-mode:tb-rl;text-anchor:end;fill:#000000;fill-opacity:1;fill-rule:evenodd;stroke:none;stroke-width:0.264583;stroke-linejoin:round;stroke-miterlimit:4;stroke-dasharray:none;stroke-opacity:1"
         id="path1024" />
    </g>
    <g
       id="g1032"
       transform="translate(52.916671)">
      <rect
         style="fill:#fff40d;fill-opacity:1;fill-rule:evenodd;stroke:#000000;stroke-width:0.261963;stroke-linejoin:round;stroke-miterlimit:4;stroke-dasharray:none;stroke-opacity:1"
         id="rect1028"
         width="26.196369"
         height="26.196369"
         x="-128.24855"
         y="46.11179"
         transform="scale(-1,1)" />
      <path
         d="m 111.80174,61.45962 1.30224,-0.110243 q 0.14469,0.950846 0.66835,1.433159 0.53054,0.475422 1.27468,0.475422 0.89573,0 1.51584,-0.675238 0.62012,-0.675238 0.62012,-1.791448 0,-1.061089 -0.59945,-1.674315 -0.59255,-0.613227 -1.55718,-0.613227 -0.59944,0 -1.08176,0.275608 -0.48231,0.268717 -0.75792,0.702799 l -1.16444,-0.151584 0.97841,-5.18831 h 5.02294 v 1.185112 h -4.03076 l -0.54432,2.714733 q 0.9095,-0.633897 1.90858,-0.633897 1.32292,0 2.23242,0.916394 0.90951,0.916395 0.90951,2.356444 0,1.371147 -0.79927,2.370224 -0.97151,1.226453 -2.65272,1.226453 -1.37803,0 -2.25309,-0.771701 -0.86816,-0.771701 -0.99218,-2.046385 z"
         style="font-style:normal;font-variant:normal;font-weight:normal;font-stretch:normal;font-size:14.1111px;font-family:Arial;-inkscape-font-specification:Arial;text-align:end;writing-mode:tb-rl;text-anchor:end;fill:#000000;fill-opacity:1;fill-rule:evenodd;stroke:none;stroke-width:0.264583;stroke-linejoin:round;stroke-miterlimit:4;stroke-dasharray:none;stroke-opacity:1"
         id="path1030" />
    </g>
    <g
       id="g1038"
       transform="translate(158.75)">
      <rect
         style="fill:#fff40d;fill-opacity:1;fill-rule:evenodd;stroke:#000000;stroke-width:0.261963;stroke-linejoin:round;stroke-miterlimit:4;stroke-dasharray:none;stroke-opacity:1"
         id="rect1034"
         width="26.196369"
         height="26.196369"
         x="-75.33197"
         y="46.11179"
         transform="scale(-1,1)" />
      <path
         d="m 58.940277,59.213419 q 0,-1.791449 0.36518,-2.880098 0.37207,-1.09554 1.095539,-1.688095 0.73036,-0.592556 1.83279,-0.592556 0.813042,0 1.426268,0.330728 0.613227,0.323839 1.012857,0.943956 0.399631,0.613226 0.627007,1.50206 0.227376,0.881944 0.227376,2.384005 0,1.777668 -0.365179,2.873207 -0.36518,1.088649 -1.09554,1.688096 -0.723469,0.592556 -1.832789,0.592556 -1.46072,0 -2.294432,-1.047309 -0.999077,-1.260904 -0.999077,-4.10655 z m 1.274684,0 q 0,2.487357 0.578776,3.314179 0.585666,0.819932 1.440049,0.819932 0.854383,0 1.433158,-0.826822 0.585666,-0.826823 0.585666,-3.307289 0,-2.494248 -0.585666,-3.31418 -0.578775,-0.819932 -1.446939,-0.819932 -0.854383,0 -1.364256,0.72347 -0.640788,0.923285 -0.640788,3.410642 z"
         style="font-style:normal;font-variant:normal;font-weight:normal;font-stretch:normal;font-size:14.1111px;font-family:Arial;-inkscape-font-specification:Arial;text-align:end;writing-mode:tb-rl;text-anchor:end;fill:#000000;fill-opacity:1;fill-rule:evenodd;stroke:none;stroke-width:0.264583;stroke-linejoin:round;stroke-miterlimit:4;stroke-dasharray:none;stroke-opacity:1"
         id="path1036" />
    </g>
    <g
       id="g1044"
       transform="translate(264.58334)">
      <rect
         style="fill:#fff40d;fill-opacity:1;fill-rule:evenodd;stroke:#000000;stroke-width:0.261963;stroke-linejoin:round;stroke-miterlimit:4;stroke-dasharray:none;stroke-opacity:1"
         id="rect1040"
         width="26.196369"
         height="26.196369"
         x="-75.33197"
         y="19.653528"
         transform="scale(-1,1)" />
      <path
         d="m 64.094136,37.822889 h -1.240234 v -7.903043 q -0.447862,0.427192 -1.178222,0.854383 -0.723469,0.427192 -1.302245,0.640788 v -1.198893 q 1.040418,-0.489203 1.819009,-1.185111 0.778591,-0.695909 1.10243,-1.350477 h 0.799262 z"
         style="font-style:normal;font-variant:normal;font-weight:normal;font-stretch:normal;font-size:14.1111px;font-family:Arial;-inkscape-font-specification:Arial;text-align:end;writing-mode:tb-rl;text-anchor:end;fill:#000000;fill-opacity:1;fill-rule:evenodd;stroke:none;stroke-width:0.264583;stroke-linejoin:round;stroke-miterlimit:4;stroke-dasharray:none;stroke-opacity:1"
         id="path1042" />
    </g>
    <g
       id="g1050"
       transform="translate(211.66667)">
      <rect
         style="fill:#fff40d;fill-opacity:1;fill-rule:evenodd;stroke:#000000;stroke-width:0.261963;stroke-linejoin:round;stroke-miterlimit:4;stroke-dasharray:none;stroke-opacity:1"
         id="rect1046"
         width="26.196369"
         height="26.196369"
         x="-101.79022"
         y="46.11179"
         transform="scale(-1,1)" />
      <path
         d="m 92.030884,63.089149 v 1.192002 h -6.67659 q -0.01378,-0.447862 0.144694,-0.861273 0.254937,-0.682129 0.813042,-1.343587 0.564995,-0.661457 1.626084,-1.529621 1.646754,-1.350476 2.22553,-2.135957 0.578775,-0.792372 0.578775,-1.495171 0,-0.737249 -0.530544,-1.240233 -0.523654,-0.509874 -1.371147,-0.509874 -0.895724,0 -1.433159,0.537435 -0.537434,0.537434 -0.544324,1.48828 L 85.58856,57.060236 q 0.130914,-1.426268 0.985297,-2.170408 0.854383,-0.75103 2.294432,-0.75103 1.453829,0 2.301322,0.806151 0.847493,0.806152 0.847493,1.998154 0,0.606337 -0.248047,1.192002 -0.248047,0.585666 -0.826822,1.233344 -0.571886,0.647677 -1.908582,1.777667 -1.11621,0.937066 -1.433158,1.274685 -0.316949,0.330729 -0.523654,0.668348 z"
         style="font-style:normal;font-variant:normal;font-weight:normal;font-stretch:normal;font-size:14.1111px;font-family:Arial;-inkscape-font-specification:Arial;text-align:end;writing-mode:tb-rl;text-anchor:end;fill:#000000;fill-opacity:1;fill-rule:evenodd;stroke:none;stroke-width:0.264583;stroke-linejoin:round;stroke-miterlimit:4;stroke-dasharray:none;stroke-opacity:1"
         id="path1048" />
    </g>
    <g
       id="g1056"
       transform="translate(264.58334)">
      <rect
         style="fill:#fff40d;fill-opacity:1;fill-rule:evenodd;stroke:#000000;stroke-width:0.261963;stroke-linejoin:round;stroke-miterlimit:4;stroke-dasharray:none;stroke-opacity:1"
         id="rect1052"
         width="26.196369"
         height="26.196369"
         x="-75.33197"
         y="72.57019"
         transform="scale(-1,1)" />
      <path
         d="m 58.926497,87.983478 1.240234,-0.165365 q 0.213595,1.054199 0.723469,1.522731 0.516764,0.461643 1.254014,0.461643 0.875053,0 1.4745,-0.606337 0.606336,-0.606336 0.606336,-1.50206 0,-0.854383 -0.558105,-1.405598 -0.558105,-0.558105 -1.419378,-0.558105 -0.3514,0 -0.875054,0.137804 l 0.137804,-1.08865 q 0.124023,0.01378 0.199815,0.01378 0.792372,0 1.426269,-0.413411 0.633897,-0.413411 0.633897,-1.274684 0,-0.682128 -0.461643,-1.129991 -0.461642,-0.447862 -1.192002,-0.447862 -0.723469,0 -1.205782,0.454753 -0.482313,0.454752 -0.620117,1.364256 l -1.240233,-0.220486 q 0.227376,-1.247123 1.033527,-1.929252 0.806152,-0.689018 2.005044,-0.689018 0.826823,0 1.522731,0.35829 0.695909,0.351399 1.061089,0.964626 0.37207,0.613226 0.37207,1.302245 0,0.654567 -0.351399,1.192002 -0.3514,0.537434 -1.040418,0.854383 0.895724,0.206705 1.391817,0.861273 0.496093,0.647677 0.496093,1.626084 0,1.322915 -0.964626,2.2462 -0.964626,0.916395 -2.439125,0.916395 -1.329806,0 -2.21175,-0.792371 -0.875053,-0.792372 -0.999077,-2.053275 z"
         style="font-style:normal;font-variant:normal;font-weight:normal;font-stretch:normal;font-size:14.1111px;font-family:Arial;-inkscape-font-specification:Arial;text-align:end;writing-mode:tb-rl;text-anchor:end;fill:#000000;fill-opacity:1;fill-rule:evenodd;stroke:none;stroke-width:0.264583;stroke-linejoin:round;stroke-miterlimit:4;stroke-dasharray:none;stroke-opacity:1"
         id="path1054" />
    </g>
    <g
       id="g1062"
       transform="translate(317.5)">
      <rect
         style="fill:#fff40d;fill-opacity:1;fill-rule:evenodd;stroke:#000000;stroke-width:0.261963;stroke-linejoin:round;stroke-miterlimit:4;stroke-dasharray:none;stroke-opacity:1"
         id="rect1058"
         width="26.196369"
         height="26.196369"
         x="-48.873554"
         y="46.11179"
         transform="scale(-1,1)" />
      <path
         d="m 36.664204,64.26048 v -2.418455 h -4.382158 v -1.13688 l 4.609534,-6.545677 h 1.012857 v 6.545677 h 1.364257 v 1.13688 h -1.364257 v 2.418455 z m 0,-3.555335 v -4.554413 l -3.162595,4.554413 z"
         style="font-style:normal;font-variant:normal;font-weight:normal;font-stretch:normal;font-size:14.1111px;font-family:Arial;-inkscape-font-specification:Arial;text-align:end;writing-mode:tb-rl;text-anchor:end;fill:#000000;fill-opacity:1;fill-rule:evenodd;stroke:none;stroke-width:0.264583;stroke-linejoin:round;stroke-miterlimit:4;stroke-dasharray:none;stroke-opacity:1"
         id="path1060" />
    </g>
    <g
       id="g1068"
       transform="translate(211.66667)">
      <rect
         style="fill:#fff40d;fill-opacity:1;fill-rule:evenodd;stroke:#000000;stroke-width:0.261963;stroke-linejoin:round;stroke-miterlimit:4;stroke-dasharray:none;stroke-opacity:1"
         id="rect1064"
         width="26.196369"
         height="26.196369"
         x="-128.24855"
         y="46.11179"
         transform="scale(-1,1)" />
      <path
         d="m 111.80174,61.45962 1.30224,-0.110243 q 0.14469,0.950846 0.66835,1.433159 0.53054,0.475422 1.27468,0.475422 0.89573,0 1.51584,-0.675238 0.62012,-0.675238 0.62012,-1.791448 0,-1.061089 -0.59945,-1.674315 -0.59255,-0.613227 -1.55718,-0.613227 -0.59944,0 -1.08176,0.275608 -0.48231,0.268717 -0.75792,0.702799 l -1.16444,-0.151584 0.97841,-5.18831 h 5.02294 v 1.185112 h -4.03076 l -0.54432,2.714733 q 0.9095,-0.633897 1.90858,-0.633897 1.32292,0 2.23242,0.916394 0.90951,0.916395 0.90951,2.356444 0,1.371147 -0.79927,2.370224 -0.97151,1.226453 -2.65272,1.226453 -1.37803,0 -2.25309,-0.771701 -0.86816,-0.771701 -0.99218,-2.046385 z"
         style="font-style:normal;font-variant:normal;font-weight:normal;font-stretch:normal;font-size:14.1111px;font-family:Arial;-inkscape-font-specification:Arial;text-align:end;writing-mode:tb-rl;text-anchor:end;fill:#000000;fill-opacity:1;fill-rule:evenodd;stroke:none;stroke-width:0.264583;stroke-linejoin:round;stroke-miterlimit:4;stroke-dasharray:none;stroke-opacity:1"
         id="path1066" />
    </g>
    <g
       id="g1074"
       transform="translate(317.5)">
      <rect
         style="fill:#fff40d;fill-opacity:1;fill-rule:evenodd;stroke:#000000;stroke-width:0.261963;stroke-linejoin:round;stroke-miterlimit:4;stroke-dasharray:none;stroke-opacity:1"
         id="rect1070"
         width="26.196369"
         height="26.196369"
         x="-75.33197"
         y="46.11179"
         transform="scale(-1,1)" />
      <path
         d="m 58.940277,59.213419 q 0,-1.791449 0.36518,-2.880098 0.37207,-1.09554 1.095539,-1.688095 0.73036,-0.592556 1.83279,-0.592556 0.813042,0 1.426268,0.330728 0.613227,0.323839 1.012857,0.943956 0.399631,0.613226 0.627007,1.50206 0.227376,0.881944 0.227376,2.384005 0,1.777668 -0.365179,2.873207 -0.36518,1.088649 -1.09554,1.688096 -0.723469,0.592556 -1.832789,0.592556 -1.46072,0 -2.294432,-1.047309 -0.999077,-1.260904 -0.999077,-4.10655 z m 1.274684,0 q 0,2.487357 0.578776,3.314179 0.585666,0.819932 1.440049,0.819932 0.854383,0 1.433158,-0.826822 0.585666,-0.826823 0.585666,-3.307289 0,-2.494248 -0.585666,-3.31418 -0.578775,-0.819932 -1.446939,-0.819932 -0.854383,0 -1.364256,0.72347 -0.640788,0.923285 -0.640788,3.410642 z"
         style="font-style:normal;font-variant:normal;font-weight:normal;font-stretch:normal;font-size:14.1111px;font-family:Arial;-inkscape-font-specification:Arial;text-align:end;writing-mode:tb-rl;text-anchor:end;fill:#000000;fill-opacity:1;fill-rule:evenodd;stroke:none;stroke-width:0.264583;stroke-linejoin:round;stroke-miterlimit:4;stroke-dasharray:none;stroke-opacity:1"
         id="path1072" />
    </g>
    <g
       id="g1080"
       transform="translate(396.875)">
      <rect
         style="fill:#fff40d;fill-opacity:1;fill-rule:evenodd;stroke:#000000;stroke-width:0.261963;stroke-linejoin:round;stroke-miterlimit:4;stroke-dasharray:none;stroke-opacity:1"
         id="rect1076"
         width="26.196369"
         height="26.196369"
         x="-75.33197"
         y="19.653528"
         transform="scale(-1,1)" />
      <path
         d="m 64.094136,37.822889 h -1.240234 v -7.903043 q -0.447862,0.427192 -1.178222,0.854383 -0.723469,0.427192 -1.302245,0.640788 v -1.198893 q 1.040418,-0.489203 1.819009,-1.185111 0.778591,-0.695909 1.10243,-1.350477 h 0.799262 z"
         style="font-style:normal;font-variant:normal;font-weight:normal;font-stretch:normal;font-size:14.1111px;font-family:Arial;-inkscape-font-specification:Arial;text-align:end;writing-mode:tb-rl;text-anchor:end;fill:#000000;fill-opacity:1;fill-rule:evenodd;stroke:none;stroke-width:0.264583;stroke-linejoin:round;stroke-miterlimit:4;stroke-dasharray:none;stroke-opacity:1"
         id="path1078" />
    </g>
    <g
       id="g1086"
       transform="translate(370.41667)">
      <rect
         style="fill:#fff40d;fill-opacity:1;fill-rule:evenodd;stroke:#000000;stroke-width:0.261963;stroke-linejoin:round;stroke-miterlimit:4;stroke-dasharray:none;stroke-opacity:1"
         id="rect1082"
         width="26.196369"
         height="26.196369"
         x="-101.79022"
         y="46.11179"
         transform="scale(-1,1)" />
      <path
         d="m 92.030884,63.089149 v 1.192002 h -6.67659 q -0.01378,-0.447862 0.144694,-0.861273 0.254937,-0.682129 0.813042,-1.343587 0.564995,-0.661457 1.626084,-1.529621 1.646754,-1.350476 2.22553,-2.135957 0.578775,-0.792372 0.578775,-1.495171 0,-0.737249 -0.530544,-1.240233 -0.523654,-0.509874 -1.371147,-0.509874 -0.895724,0 -1.433159,0.537435 -0.537434,0.537434 -0.544324,1.48828 L 85.58856,57.060236 q 0.130914,-1.426268 0.985297,-2.170408 0.854383,-0.75103 2.294432,-0.75103 1.453829,0 2.301322,0.806151 0.847493,0.806152 0.847493,1.998154 0,0.606337 -0.248047,1.192002 -0.248047,0.585666 -0.826822,1.233344 -0.571886,0.647677 -1.908582,1.777667 -1.11621,0.937066 -1.433158,1.274685 -0.316949,0.330729 -0.523654,0.668348 z"
         style="font-style:normal;font-variant:normal;font-weight:normal;font-stretch:normal;font-size:14.1111px;font-family:Arial;-inkscape-font-specification:Arial;text-align:end;writing-mode:tb-rl;text-anchor:end;fill:#000000;fill-opacity:1;fill-rule:evenodd;stroke:none;stroke-width:0.264583;stroke-linejoin:round;stroke-miterlimit:4;stroke-dasharray:none;stroke-opacity:1"
         id="path1084" />
    </g>
    <g
       id="g1092"
       transform="translate(396.875)">
      <rect
         style="fill:#fff40d;fill-opacity:1;fill-rule:evenodd;stroke:#000000;stroke-width:0.261963;stroke-linejoin:round;stroke-miterlimit:4;stroke-dasharray:none;stroke-opacity:1"
         id="rect1088"
         width="26.196369"
         height="26.196369"
         x="-75.33197"
         y="72.57019"
         transform="scale(-1,1)" />
      <path
         d="m 58.926497,87.983478 1.240234,-0.165365 q 0.213595,1.054199 0.723469,1.522731 0.516764,0.461643 1.254014,0.461643 0.875053,0 1.4745,-0.606337 0.606336,-0.606336 0.606336,-1.50206 0,-0.854383 -0.558105,-1.405598 -0.558105,-0.558105 -1.419378,-0.558105 -0.3514,0 -0.875054,0.137804 l 0.137804,-1.08865 q 0.124023,0.01378 0.199815,0.01378 0.792372,0 1.426269,-0.413411 0.633897,-0.413411 0.633897,-1.274684 0,-0.682128 -0.461643,-1.129991 -0.461642,-0.447862 -1.192002,-0.447862 -0.723469,0 -1.205782,0.454753 -0.482313,0.454752 -0.620117,1.364256 l -1.240233,-0.220486 q 0.227376,-1.247123 1.033527,-1.929252 0.806152,-0.689018 2.005044,-0.689018 0.826823,0 1.522731,0.35829 0.695909,0.351399 1.061089,0.964626 0.37207,0.613226 0.37207,1.302245 0,0.654567 -0.351399,1.192002 -0.3514,0.537434 -1.040418,0.854383 0.895724,0.206705 1.391817,0.861273 0.496093,0.647677 0.496093,1.626084 0,1.322915 -0.964626,2.2462 -0.964626,0.916395 -2.439125,0.916395 -1.329806,0 -2.21175,-0.792371 -0.875053,-0.792372 -0.999077,-2.053275 z"
         style="font-style:normal;font-variant:normal;font-weight:normal;font-stretch:normal;font-size:14.1111px;font-family:Arial;-inkscape-font-specification:Arial;text-align:end;writing-mode:tb-rl;text-anchor:end;fill:#000000;fill-opacity:1;fill-rule:evenodd;stroke:none;stroke-width:0.264583;stroke-linejoin:round;stroke-miterlimit:4;stroke-dasharray:none;stroke-opacity:1"
         id="path1090" />
    </g>
    <g
       id="g1098"
       transform="translate(476.25)">
      <rect
         style="fill:#fff40d;fill-opacity:1;fill-rule:evenodd;stroke:#000000;stroke-width:0.261963;stroke-linejoin:round;stroke-miterlimit:4;stroke-dasharray:none;stroke-opacity:1"
         id="rect1094"
         width="26.196369"
         height="26.196369"
         x="-48.873554"
         y="46.11179"
         transform="scale(-1,1)" />
      <path
         d="m 36.664204,64.26048 v -2.418455 h -4.382158 v -1.13688 l 4.609534,-6.545677 h 1.012857 v 6.545677 h 1.364257 v 1.13688 h -1.364257 v 2.418455 z m 0,-3.555335 v -4.554413 l -3.162595,4.554413 z"
         style="font-style:normal;font-variant:normal;font-weight:normal;font-stretch:normal;font-size:14.1111px;font-family:Arial;-inkscape-font-specification:Arial;text-align:end;writing-mode:tb-rl;text-anchor:end;fill:#000000;fill-opacity:1;fill-rule:evenodd;stroke:none;stroke-width:0.264583;stroke-linejoin:round;stroke-miterlimit:4;stroke-dasharray:none;stroke-opacity:1"
         id="path1096" />
    </g>
    <g
       id="g1104"
       transform="translate(370.41667)">
      <rect
         style="fill:#fff40d;fill-opacity:1;fill-rule:evenodd;stroke:#000000;stroke-width:0.261963;stroke-linejoin:round;stroke-miterlimit:4;stroke-dasharray:none;stroke-opacity:1"
         id="rect1100"
         width="26.196369"
         height="26.196369"
         x="-128.24855"
         y="46.11179"
         transform="scale(-1,1)" />
      <path
         d="m 111.80174,61.45962 1.30224,-0.110243 q 0.14469,0.950846 0.66835,1.433159 0.53054,0.475422 1.27468,0.475422 0.89573,0 1.51584,-0.675238 0.62012,-0.675238 0.62012,-1.791448 0,-1.061089 -0.59945,-1.674315 -0.59255,-0.613227 -1.55718,-0.613227 -0.59944,0 -1.08176,0.275608 -0.48231,0.268717 -0.75792,0.702799 l -1.16444,-0.151584 0.97841,-5.18831 h 5.02294 v 1.185112 h -4.03076 l -0.54432,2.714733 q 0.9095,-0.633897 1.90858,-0.633897 1.32292,0 2.23242,0.916394 0.90951,0.916395 0.90951,2.356444 0,1.371147 -0.79927,2.370224 -0.97151,1.226453 -2.65272,1.226453 -1.37803,0 -2.25309,-0.771701 -0.86816,-0.771701 -0.99218,-2.046385 z"
         style="font-style:normal;font-variant:normal;font-weight:normal;font-stretch:normal;font-size:14.1111px;font-family:Arial;-inkscape-font-specification:Arial;text-align:end;writing-mode:tb-rl;text-anchor:end;fill:#000000;fill-opacity:1;fill-rule:evenodd;stroke:none;stroke-width:0.264583;stroke-linejoin:round;stroke-miterlimit:4;stroke-dasharray:none;stroke-opacity:1"
         id="path1102" />
    </g>
    <g
       id="g1110"
       transform="translate(370.41658)">
      <rect
         style="fill:#fff40d;fill-opacity:1;fill-rule:evenodd;stroke:#000000;stroke-width:0.261963;stroke-linejoin:round;stroke-miterlimit:4;stroke-dasharray:none;stroke-opacity:1"
         id="rect1106"
         width="26.196369"
         height="26.196369"
         x="-75.33197"
         y="46.11179"
         transform="scale(-1,1)" />
      <path
         d="m 58.940277,59.213419 q 0,-1.791449 0.36518,-2.880098 0.37207,-1.09554 1.095539,-1.688095 0.73036,-0.592556 1.83279,-0.592556 0.813042,0 1.426268,0.330728 0.613227,0.323839 1.012857,0.943956 0.399631,0.613226 0.627007,1.50206 0.227376,0.881944 0.227376,2.384005 0,1.777668 -0.365179,2.873207 -0.36518,1.088649 -1.09554,1.688096 -0.723469,0.592556 -1.832789,0.592556 -1.46072,0 -2.294432,-1.047309 -0.999077,-1.260904 -0.999077,-4.10655 z m 1.274684,0 q 0,2.487357 0.578776,3.314179 0.585666,0.819932 1.440049,0.819932 0.854383,0 1.433158,-0.826822 0.585666,-0.826823 0.585666,-3.307289 0,-2.494248 -0.585666,-3.31418 -0.578775,-0.819932 -1.446939,-0.819932 -0.854383,0 -1.364256,0.72347 -0.640788,0.923285 -0.640788,3.410642 z"
         style="font-style:normal;font-variant:normal;font-weight:normal;font-stretch:normal;font-size:14.1111px;font-family:Arial;-inkscape-font-specification:Arial;text-align:end;writing-mode:tb-rl;text-anchor:end;fill:#000000;fill-opacity:1;fill-rule:evenodd;stroke:none;stroke-width:0.264583;stroke-linejoin:round;stroke-miterlimit:4;stroke-dasharray:none;stroke-opacity:1"
         id="path1108" />
    </g>
    <g
       id="g1224"
       transform="translate(132.29167,132.29167)">
      <rect
         style="fill:#fff40d;fill-opacity:1;fill-rule:evenodd;stroke:#000000;stroke-width:0.261963;stroke-linejoin:round;stroke-miterlimit:4;stroke-dasharray:none;stroke-opacity:1"
         id="rect1220"
         width="26.196369"
         height="26.196369"
         x="-75.33197"
         y="19.653528"
         transform="scale(-1,1)" />
      <path
         d="m 64.094136,37.822889 h -1.240234 v -7.903043 q -0.447862,0.427192 -1.178222,0.854383 -0.723469,0.427192 -1.302245,0.640788 v -1.198893 q 1.040418,-0.489203 1.819009,-1.185111 0.778591,-0.695909 1.10243,-1.350477 h 0.799262 z"
         style="font-style:normal;font-variant:normal;font-weight:normal;font-stretch:normal;font-size:14.1111px;font-family:Arial;-inkscape-font-specification:Arial;text-align:end;writing-mode:tb-rl;text-anchor:end;fill:#000000;fill-opacity:1;fill-rule:evenodd;stroke:none;stroke-width:0.264583;stroke-linejoin:round;stroke-miterlimit:4;stroke-dasharray:none;stroke-opacity:1"
         id="path1222" />
    </g>
    <g
       id="g1230"
       transform="translate(158.75,105.83333)">
      <rect
         style="fill:#fff40d;fill-opacity:1;fill-rule:evenodd;stroke:#000000;stroke-width:0.261963;stroke-linejoin:round;stroke-miterlimit:4;stroke-dasharray:none;stroke-opacity:1"
         id="rect1226"
         width="26.196369"
         height="26.196369"
         x="-101.79022"
         y="46.11179"
         transform="scale(-1,1)" />
      <path
         d="m 92.030884,63.089149 v 1.192002 h -6.67659 q -0.01378,-0.447862 0.144694,-0.861273 0.254937,-0.682129 0.813042,-1.343587 0.564995,-0.661457 1.626084,-1.529621 1.646754,-1.350476 2.22553,-2.135957 0.578775,-0.792372 0.578775,-1.495171 0,-0.737249 -0.530544,-1.240233 -0.523654,-0.509874 -1.371147,-0.509874 -0.895724,0 -1.433159,0.537435 -0.537434,0.537434 -0.544324,1.48828 L 85.58856,57.060236 q 0.130914,-1.426268 0.985297,-2.170408 0.854383,-0.75103 2.294432,-0.75103 1.453829,0 2.301322,0.806151 0.847493,0.806152 0.847493,1.998154 0,0.606337 -0.248047,1.192002 -0.248047,0.585666 -0.826822,1.233344 -0.571886,0.647677 -1.908582,1.777667 -1.11621,0.937066 -1.433158,1.274685 -0.316949,0.330729 -0.523654,0.668348 z"
         style="font-style:normal;font-variant:normal;font-weight:normal;font-stretch:normal;font-size:14.1111px;font-family:Arial;-inkscape-font-specification:Arial;text-align:end;writing-mode:tb-rl;text-anchor:end;fill:#000000;fill-opacity:1;fill-rule:evenodd;stroke:none;stroke-width:0.264583;stroke-linejoin:round;stroke-miterlimit:4;stroke-dasharray:none;stroke-opacity:1"
         id="path1228" />
    </g>
    <g
       id="g1236"
       transform="translate(132.29167,52.916671)">
      <rect
         style="fill:#fff40d;fill-opacity:1;fill-rule:evenodd;stroke:#000000;stroke-width:0.261963;stroke-linejoin:round;stroke-miterlimit:4;stroke-dasharray:none;stroke-opacity:1"
         id="rect1232"
         width="26.196369"
         height="26.196369"
         x="-75.33197"
         y="72.57019"
         transform="scale(-1,1)" />
      <path
         d="m 58.926497,87.983478 1.240234,-0.165365 q 0.213595,1.054199 0.723469,1.522731 0.516764,0.461643 1.254014,0.461643 0.875053,0 1.4745,-0.606337 0.606336,-0.606336 0.606336,-1.50206 0,-0.854383 -0.558105,-1.405598 -0.558105,-0.558105 -1.419378,-0.558105 -0.3514,0 -0.875054,0.137804 l 0.137804,-1.08865 q 0.124023,0.01378 0.199815,0.01378 0.792372,0 1.426269,-0.413411 0.633897,-0.413411 0.633897,-1.274684 0,-0.682128 -0.461643,-1.129991 -0.461642,-0.447862 -1.192002,-0.447862 -0.723469,0 -1.205782,0.454753 -0.482313,0.454752 -0.620117,1.364256 l -1.240233,-0.220486 q 0.227376,-1.247123 1.033527,-1.929252 0.806152,-0.689018 2.005044,-0.689018 0.826823,0 1.522731,0.35829 0.695909,0.351399 1.061089,0.964626 0.37207,0.613226 0.37207,1.302245 0,0.654567 -0.351399,1.192002 -0.3514,0.537434 -1.040418,0.854383 0.895724,0.206705 1.391817,0.861273 0.496093,0.647677 0.496093,1.626084 0,1.322915 -0.964626,2.2462 -0.964626,0.916395 -2.439125,0.916395 -1.329806,0 -2.21175,-0.792371 -0.875053,-0.792372 -0.999077,-2.053275 z"
         style="font-style:normal;font-variant:normal;font-weight:normal;font-stretch:normal;font-size:14.1111px;font-family:Arial;-inkscape-font-specification:Arial;text-align:end;writing-mode:tb-rl;text-anchor:end;fill:#000000;fill-opacity:1;fill-rule:evenodd;stroke:none;stroke-width:0.264583;stroke-linejoin:round;stroke-miterlimit:4;stroke-dasharray:none;stroke-opacity:1"
         id="path1234" />
    </g>
    <g
       id="g1242"
       transform="translate(158.75,132.29167)">
      <rect
         style="fill:#fff40d;fill-opacity:1;fill-rule:evenodd;stroke:#000000;stroke-width:0.261963;stroke-linejoin:round;stroke-miterlimit:4;stroke-dasharray:none;stroke-opacity:1"
         id="rect1238"
         width="26.196369"
         height="26.196369"
         x="-48.873554"
         y="46.11179"
         transform="scale(-1,1)" />
      <path
         d="m 36.664204,64.26048 v -2.418455 h -4.382158 v -1.13688 l 4.609534,-6.545677 h 1.012857 v 6.545677 h 1.364257 v 1.13688 h -1.364257 v 2.418455 z m 0,-3.555335 v -4.554413 l -3.162595,4.554413 z"
         style="font-style:normal;font-variant:normal;font-weight:normal;font-stretch:normal;font-size:14.1111px;font-family:Arial;-inkscape-font-specification:Arial;text-align:end;writing-mode:tb-rl;text-anchor:end;fill:#000000;fill-opacity:1;fill-rule:evenodd;stroke:none;stroke-width:0.264583;stroke-linejoin:round;stroke-miterlimit:4;stroke-dasharray:none;stroke-opacity:1"
         id="path1240" />
    </g>
    <g
       id="g1248"
       transform="translate(52.916671,105.83333)">
      <rect
         style="fill:#fff40d;fill-opacity:1;fill-rule:evenodd;stroke:#000000;stroke-width:0.261963;stroke-linejoin:round;stroke-miterlimit:4;stroke-dasharray:none;stroke-opacity:1"
         id="rect1244"
         width="26.196369"
         height="26.196369"
         x="-128.24855"
         y="46.11179"
         transform="scale(-1,1)" />
      <path
         d="m 111.80174,61.45962 1.30224,-0.110243 q 0.14469,0.950846 0.66835,1.433159 0.53054,0.475422 1.27468,0.475422 0.89573,0 1.51584,-0.675238 0.62012,-0.675238 0.62012,-1.791448 0,-1.061089 -0.59945,-1.674315 -0.59255,-0.613227 -1.55718,-0.613227 -0.59944,0 -1.08176,0.275608 -0.48231,0.268717 -0.75792,0.702799 l -1.16444,-0.151584 0.97841,-5.18831 h 5.02294 v 1.185112 h -4.03076 l -0.54432,2.714733 q 0.9095,-0.633897 1.90858,-0.633897 1.32292,0 2.23242,0.916394 0.90951,0.916395 0.90951,2.356444 0,1.371147 -0.79927,2.370224 -0.97151,1.226453 -2.65272,1.226453 -1.37803,0 -2.25309,-0.771701 -0.86816,-0.771701 -0.99218,-2.046385 z"
         style="font-style:normal;font-variant:normal;font-weight:normal;font-stretch:normal;font-size:14.1111px;font-family:Arial;-inkscape-font-specification:Arial;text-align:end;writing-mode:tb-rl;text-anchor:end;fill:#000000;fill-opacity:1;fill-rule:evenodd;stroke:none;stroke-width:0.264583;stroke-linejoin:round;stroke-miterlimit:4;stroke-dasharray:none;stroke-opacity:1"
         id="path1246" />
    </g>
    <g
       id="g1254"
       transform="translate(158.75,105.83333)">
      <rect
         style="fill:#fff40d;fill-opacity:1;fill-rule:evenodd;stroke:#000000;stroke-width:0.261963;stroke-linejoin:round;stroke-miterlimit:4;stroke-dasharray:none;stroke-opacity:1"
         id="rect1250"
         width="26.196369"
         height="26.196369"
         x="-75.33197"
         y="46.11179"
         transform="scale(-1,1)" />
      <path
         d="m 58.940277,59.213419 q 0,-1.791449 0.36518,-2.880098 0.37207,-1.09554 1.095539,-1.688095 0.73036,-0.592556 1.83279,-0.592556 0.813042,0 1.426268,0.330728 0.613227,0.323839 1.012857,0.943956 0.399631,0.613226 0.627007,1.50206 0.227376,0.881944 0.227376,2.384005 0,1.777668 -0.365179,2.873207 -0.36518,1.088649 -1.09554,1.688096 -0.723469,0.592556 -1.832789,0.592556 -1.46072,0 -2.294432,-1.047309 -0.999077,-1.260904 -0.999077,-4.10655 z m 1.274684,0 q 0,2.487357 0.578776,3.314179 0.585666,0.819932 1.440049,0.819932 0.854383,0 1.433158,-0.826822 0.585666,-0.826823 0.585666,-3.307289 0,-2.494248 -0.585666,-3.31418 -0.578775,-0.819932 -1.446939,-0.819932 -0.854383,0 -1.364256,0.72347 -0.640788,0.923285 -0.640788,3.410642 z"
         style="font-style:normal;font-variant:normal;font-weight:normal;font-stretch:normal;font-size:14.1111px;font-family:Arial;-inkscape-font-specification:Arial;text-align:end;writing-mode:tb-rl;text-anchor:end;fill:#000000;fill-opacity:1;fill-rule:evenodd;stroke:none;stroke-width:0.264583;stroke-linejoin:round;stroke-miterlimit:4;stroke-dasharray:none;stroke-opacity:1"
         id="path1252" />
    </g>
    <g
       id="g1260"
       transform="translate(264.58334,132.29167)">
      <rect
         style="fill:#fff40d;fill-opacity:1;fill-rule:evenodd;stroke:#000000;stroke-width:0.261963;stroke-linejoin:round;stroke-miterlimit:4;stroke-dasharray:none;stroke-opacity:1"
         id="rect1256"
         width="26.196369"
         height="26.196369"
         x="-75.33197"
         y="19.653528"
         transform="scale(-1,1)" />
      <path
         d="m 64.094136,37.822889 h -1.240234 v -7.903043 q -0.447862,0.427192 -1.178222,0.854383 -0.723469,0.427192 -1.302245,0.640788 v -1.198893 q 1.040418,-0.489203 1.819009,-1.185111 0.778591,-0.695909 1.10243,-1.350477 h 0.799262 z"
         style="font-style:normal;font-variant:normal;font-weight:normal;font-stretch:normal;font-size:14.1111px;font-family:Arial;-inkscape-font-specification:Arial;text-align:end;writing-mode:tb-rl;text-anchor:end;fill:#000000;fill-opacity:1;fill-rule:evenodd;stroke:none;stroke-width:0.264583;stroke-linejoin:round;stroke-miterlimit:4;stroke-dasharray:none;stroke-opacity:1"
         id="path1258" />
    </g>
    <g
       id="g1266"
       transform="translate(211.66667,105.83333)">
      <rect
         style="fill:#fff40d;fill-opacity:1;fill-rule:evenodd;stroke:#000000;stroke-width:0.261963;stroke-linejoin:round;stroke-miterlimit:4;stroke-dasharray:none;stroke-opacity:1"
         id="rect1262"
         width="26.196369"
         height="26.196369"
         x="-101.79022"
         y="46.11179"
         transform="scale(-1,1)" />
      <path
         d="m 92.030884,63.089149 v 1.192002 h -6.67659 q -0.01378,-0.447862 0.144694,-0.861273 0.254937,-0.682129 0.813042,-1.343587 0.564995,-0.661457 1.626084,-1.529621 1.646754,-1.350476 2.22553,-2.135957 0.578775,-0.792372 0.578775,-1.495171 0,-0.737249 -0.530544,-1.240233 -0.523654,-0.509874 -1.371147,-0.509874 -0.895724,0 -1.433159,0.537435 -0.537434,0.537434 -0.544324,1.48828 L 85.58856,57.060236 q 0.130914,-1.426268 0.985297,-2.170408 0.854383,-0.75103 2.294432,-0.75103 1.453829,0 2.301322,0.806151 0.847493,0.806152 0.847493,1.998154 0,0.606337 -0.248047,1.192002 -0.248047,0.585666 -0.826822,1.233344 -0.571886,0.647677 -1.908582,1.777667 -1.11621,0.937066 -1.433158,1.274685 -0.316949,0.330729 -0.523654,0.668348 z"
         style="font-style:normal;font-variant:normal;font-weight:normal;font-stretch:normal;font-size:14.1111px;font-family:Arial;-inkscape-font-specification:Arial;text-align:end;writing-mode:tb-rl;text-anchor:end;fill:#000000;fill-opacity:1;fill-rule:evenodd;stroke:none;stroke-width:0.264583;stroke-linejoin:round;stroke-miterlimit:4;stroke-dasharray:none;stroke-opacity:1"
         id="path1264" />
    </g>
    <g
       id="g1272"
       transform="translate(264.58334,52.916671)">
      <rect
         style="fill:#fff40d;fill-opacity:1;fill-rule:evenodd;stroke:#000000;stroke-width:0.261963;stroke-linejoin:round;stroke-miterlimit:4;stroke-dasharray:none;stroke-opacity:1"
         id="rect1268"
         width="26.196369"
         height="26.196369"
         x="-75.33197"
         y="72.57019"
         transform="scale(-1,1)" />
      <path
         d="m 58.926497,87.983478 1.240234,-0.165365 q 0.213595,1.054199 0.723469,1.522731 0.516764,0.461643 1.254014,0.461643 0.875053,0 1.4745,-0.606337 0.606336,-0.606336 0.606336,-1.50206 0,-0.854383 -0.558105,-1.405598 -0.558105,-0.558105 -1.419378,-0.558105 -0.3514,0 -0.875054,0.137804 l 0.137804,-1.08865 q 0.124023,0.01378 0.199815,0.01378 0.792372,0 1.426269,-0.413411 0.633897,-0.413411 0.633897,-1.274684 0,-0.682128 -0.461643,-1.129991 -0.461642,-0.447862 -1.192002,-0.447862 -0.723469,0 -1.205782,0.454753 -0.482313,0.454752 -0.620117,1.364256 l -1.240233,-0.220486 q 0.227376,-1.247123 1.033527,-1.929252 0.806152,-0.689018 2.005044,-0.689018 0.826823,0 1.522731,0.35829 0.695909,0.351399 1.061089,0.964626 0.37207,0.613226 0.37207,1.302245 0,0.654567 -0.351399,1.192002 -0.3514,0.537434 -1.040418,0.854383 0.895724,0.206705 1.391817,0.861273 0.496093,0.647677 0.496093,1.626084 0,1.322915 -0.964626,2.2462 -0.964626,0.916395 -2.439125,0.916395 -1.329806,0 -2.21175,-0.792371 -0.875053,-0.792372 -0.999077,-2.053275 z"
         style="font-style:normal;font-variant:normal;font-weight:normal;font-stretch:normal;font-size:14.1111px;font-family:Arial;-inkscape-font-specification:Arial;text-align:end;writing-mode:tb-rl;text-anchor:end;fill:#000000;fill-opacity:1;fill-rule:evenodd;stroke:none;stroke-width:0.264583;stroke-linejoin:round;stroke-miterlimit:4;stroke-dasharray:none;stroke-opacity:1"
         id="path1270" />
    </g>
    <g
       id="g1278"
       transform="translate(317.5,105.83333)">
      <rect
         style="fill:#fff40d;fill-opacity:1;fill-rule:evenodd;stroke:#000000;stroke-width:0.261963;stroke-linejoin:round;stroke-miterlimit:4;stroke-dasharray:none;stroke-opacity:1"
         id="rect1274"
         width="26.196369"
         height="26.196369"
         x="-48.873554"
         y="46.11179"
         transform="scale(-1,1)" />
      <path
         d="m 36.664204,64.26048 v -2.418455 h -4.382158 v -1.13688 l 4.609534,-6.545677 h 1.012857 v 6.545677 h 1.364257 v 1.13688 h -1.364257 v 2.418455 z m 0,-3.555335 v -4.554413 l -3.162595,4.554413 z"
         style="font-style:normal;font-variant:normal;font-weight:normal;font-stretch:normal;font-size:14.1111px;font-family:Arial;-inkscape-font-specification:Arial;text-align:end;writing-mode:tb-rl;text-anchor:end;fill:#000000;fill-opacity:1;fill-rule:evenodd;stroke:none;stroke-width:0.264583;stroke-linejoin:round;stroke-miterlimit:4;stroke-dasharray:none;stroke-opacity:1"
         id="path1276" />
    </g>
    <g
       id="g1284"
       transform="translate(211.66667,132.29167)">
      <rect
         style="fill:#fff40d;fill-opacity:1;fill-rule:evenodd;stroke:#000000;stroke-width:0.261963;stroke-linejoin:round;stroke-miterlimit:4;stroke-dasharray:none;stroke-opacity:1"
         id="rect1280"
         width="26.196369"
         height="26.196369"
         x="-128.24855"
         y="46.11179"
         transform="scale(-1,1)" />
      <path
         d="m 111.80174,61.45962 1.30224,-0.110243 q 0.14469,0.950846 0.66835,1.433159 0.53054,0.475422 1.27468,0.475422 0.89573,0 1.51584,-0.675238 0.62012,-0.675238 0.62012,-1.791448 0,-1.061089 -0.59945,-1.674315 -0.59255,-0.613227 -1.55718,-0.613227 -0.59944,0 -1.08176,0.275608 -0.48231,0.268717 -0.75792,0.702799 l -1.16444,-0.151584 0.97841,-5.18831 h 5.02294 v 1.185112 h -4.03076 l -0.54432,2.714733 q 0.9095,-0.633897 1.90858,-0.633897 1.32292,0 2.23242,0.916394 0.90951,0.916395 0.90951,2.356444 0,1.371147 -0.79927,2.370224 -0.97151,1.226453 -2.65272,1.226453 -1.37803,0 -2.25309,-0.771701 -0.86816,-0.771701 -0.99218,-2.046385 z"
         style="font-style:normal;font-variant:normal;font-weight:normal;font-stretch:normal;font-size:14.1111px;font-family:Arial;-inkscape-font-specification:Arial;text-align:end;writing-mode:tb-rl;text-anchor:end;fill:#000000;fill-opacity:1;fill-rule:evenodd;stroke:none;stroke-width:0.264583;stroke-linejoin:round;stroke-miterlimit:4;stroke-dasharray:none;stroke-opacity:1"
         id="path1282" />
    </g>
    <g
       id="g1290"
       transform="translate(317.5,105.83333)">
      <rect
         style="fill:#fff40d;fill-opacity:1;fill-rule:evenodd;stroke:#000000;stroke-width:0.261963;stroke-linejoin:round;stroke-miterlimit:4;stroke-dasharray:none;stroke-opacity:1"
         id="rect1286"
         width="26.196369"
         height="26.196369"
         x="-75.33197"
         y="46.11179"
         transform="scale(-1,1)" />
      <path
         d="m 58.940277,59.213419 q 0,-1.791449 0.36518,-2.880098 0.37207,-1.09554 1.095539,-1.688095 0.73036,-0.592556 1.83279,-0.592556 0.813042,0 1.426268,0.330728 0.613227,0.323839 1.012857,0.943956 0.399631,0.613226 0.627007,1.50206 0.227376,0.881944 0.227376,2.384005 0,1.777668 -0.365179,2.873207 -0.36518,1.088649 -1.09554,1.688096 -0.723469,0.592556 -1.832789,0.592556 -1.46072,0 -2.294432,-1.047309 -0.999077,-1.260904 -0.999077,-4.10655 z m 1.274684,0 q 0,2.487357 0.578776,3.314179 0.585666,0.819932 1.440049,0.819932 0.854383,0 1.433158,-0.826822 0.585666,-0.826823 0.585666,-3.307289 0,-2.494248 -0.585666,-3.31418 -0.578775,-0.819932 -1.446939,-0.819932 -0.854383,0 -1.364256,0.72347 -0.640788,0.923285 -0.640788,3.410642 z"
         style="font-style:normal;font-variant:normal;font-weight:normal;font-stretch:normal;font-size:14.1111px;font-family:Arial;-inkscape-font-specification:Arial;text-align:end;writing-mode:tb-rl;text-anchor:end;fill:#000000;fill-opacity:1;fill-rule:evenodd;stroke:none;stroke-width:0.264583;stroke-linejoin:round;stroke-miterlimit:4;stroke-dasharray:none;stroke-opacity:1"
         id="path1288" />
    </g>
    <g
       id="g1296"
       transform="translate(396.875,132.29167)">
      <rect
         style="fill:#fff40d;fill-opacity:1;fill-rule:evenodd;stroke:#000000;stroke-width:0.261963;stroke-linejoin:round;stroke-miterlimit:4;stroke-dasharray:none;stroke-opacity:1"
         id="rect1292"
         width="26.196369"
         height="26.196369"
         x="-75.33197"
         y="19.653528"
         transform="scale(-1,1)" />
      <path
         d="m 64.094136,37.822889 h -1.240234 v -7.903043 q -0.447862,0.427192 -1.178222,0.854383 -0.723469,0.427192 -1.302245,0.640788 v -1.198893 q 1.040418,-0.489203 1.819009,-1.185111 0.778591,-0.695909 1.10243,-1.350477 h 0.799262 z"
         style="font-style:normal;font-variant:normal;font-weight:normal;font-stretch:normal;font-size:14.1111px;font-family:Arial;-inkscape-font-specification:Arial;text-align:end;writing-mode:tb-rl;text-anchor:end;fill:#000000;fill-opacity:1;fill-rule:evenodd;stroke:none;stroke-width:0.264583;stroke-linejoin:round;stroke-miterlimit:4;stroke-dasharray:none;stroke-opacity:1"
         id="path1294" />
    </g>
    <g
       id="g1302"
       transform="translate(370.41667,132.29167)">
      <rect
         style="fill:#fff40d;fill-opacity:1;fill-rule:evenodd;stroke:#000000;stroke-width:0.261963;stroke-linejoin:round;stroke-miterlimit:4;stroke-dasharray:none;stroke-opacity:1"
         id="rect1298"
         width="26.196369"
         height="26.196369"
         x="-101.79022"
         y="46.11179"
         transform="scale(-1,1)" />
      <path
         d="m 92.030884,63.089149 v 1.192002 h -6.67659 q -0.01378,-0.447862 0.144694,-0.861273 0.254937,-0.682129 0.813042,-1.343587 0.564995,-0.661457 1.626084,-1.529621 1.646754,-1.350476 2.22553,-2.135957 0.578775,-0.792372 0.578775,-1.495171 0,-0.737249 -0.530544,-1.240233 -0.523654,-0.509874 -1.371147,-0.509874 -0.895724,0 -1.433159,0.537435 -0.537434,0.537434 -0.544324,1.48828 L 85.58856,57.060236 q 0.130914,-1.426268 0.985297,-2.170408 0.854383,-0.75103 2.294432,-0.75103 1.453829,0 2.301322,0.806151 0.847493,0.806152 0.847493,1.998154 0,0.606337 -0.248047,1.192002 -0.248047,0.585666 -0.826822,1.233344 -0.571886,0.647677 -1.908582,1.777667 -1.11621,0.937066 -1.433158,1.274685 -0.316949,0.330729 -0.523654,0.668348 z"
         style="font-style:normal;font-variant:normal;font-weight:normal;font-stretch:normal;font-size:14.1111px;font-family:Arial;-inkscape-font-specification:Arial;text-align:end;writing-mode:tb-rl;text-anchor:end;fill:#000000;fill-opacity:1;fill-rule:evenodd;stroke:none;stroke-width:0.264583;stroke-linejoin:round;stroke-miterlimit:4;stroke-dasharray:none;stroke-opacity:1"
         id="path1300" />
    </g>
    <g
       id="g1308"
       transform="translate(396.875,52.916671)">
      <rect
         style="fill:#fff40d;fill-opacity:1;fill-rule:evenodd;stroke:#000000;stroke-width:0.261963;stroke-linejoin:round;stroke-miterlimit:4;stroke-dasharray:none;stroke-opacity:1"
         id="rect1304"
         width="26.196369"
         height="26.196369"
         x="-75.33197"
         y="72.57019"
         transform="scale(-1,1)" />
      <path
         d="m 58.926497,87.983478 1.240234,-0.165365 q 0.213595,1.054199 0.723469,1.522731 0.516764,0.461643 1.254014,0.461643 0.875053,0 1.4745,-0.606337 0.606336,-0.606336 0.606336,-1.50206 0,-0.854383 -0.558105,-1.405598 -0.558105,-0.558105 -1.419378,-0.558105 -0.3514,0 -0.875054,0.137804 l 0.137804,-1.08865 q 0.124023,0.01378 0.199815,0.01378 0.792372,0 1.426269,-0.413411 0.633897,-0.413411 0.633897,-1.274684 0,-0.682128 -0.461643,-1.129991 -0.461642,-0.447862 -1.192002,-0.447862 -0.723469,0 -1.205782,0.454753 -0.482313,0.454752 -0.620117,1.364256 l -1.240233,-0.220486 q 0.227376,-1.247123 1.033527,-1.929252 0.806152,-0.689018 2.005044,-0.689018 0.826823,0 1.522731,0.35829 0.695909,0.351399 1.061089,0.964626 0.37207,0.613226 0.37207,1.302245 0,0.654567 -0.351399,1.192002 -0.3514,0.537434 -1.040418,0.854383 0.895724,0.206705 1.391817,0.861273 0.496093,0.647677 0.496093,1.626084 0,1.322915 -0.964626,2.2462 -0.964626,0.916395 -2.439125,0.916395 -1.329806,0 -2.21175,-0.792371 -0.875053,-0.792372 -0.999077,-2.053275 z"
         style="font-style:normal;font-variant:normal;font-weight:normal;font-stretch:normal;font-size:14.1111px;font-family:Arial;-inkscape-font-specification:Arial;text-align:end;writing-mode:tb-rl;text-anchor:end;fill:#000000;fill-opacity:1;fill-rule:evenodd;stroke:none;stroke-width:0.264583;stroke-linejoin:round;stroke-miterlimit:4;stroke-dasharray:none;stroke-opacity:1"
         id="path1306" />
    </g>
    <g
       id="g1314"
       transform="translate(476.25,105.83333)">
      <rect
         style="fill:#fff40d;fill-opacity:1;fill-rule:evenodd;stroke:#000000;stroke-width:0.261963;stroke-linejoin:round;stroke-miterlimit:4;stroke-dasharray:none;stroke-opacity:1"
         id="rect1310"
         width="26.196369"
         height="26.196369"
         x="-48.873554"
         y="46.11179"
         transform="scale(-1,1)" />
      <path
         d="m 36.664204,64.26048 v -2.418455 h -4.382158 v -1.13688 l 4.609534,-6.545677 h 1.012857 v 6.545677 h 1.364257 v 1.13688 h -1.364257 v 2.418455 z m 0,-3.555335 v -4.554413 l -3.162595,4.554413 z"
         style="font-style:normal;font-variant:normal;font-weight:normal;font-stretch:normal;font-size:14.1111px;font-family:Arial;-inkscape-font-specification:Arial;text-align:end;writing-mode:tb-rl;text-anchor:end;fill:#000000;fill-opacity:1;fill-rule:evenodd;stroke:none;stroke-width:0.264583;stroke-linejoin:round;stroke-miterlimit:4;stroke-dasharray:none;stroke-opacity:1"
         id="path1312" />
    </g>
    <g
       id="g1320"
       transform="translate(370.41667,105.83333)">
      <rect
         style="fill:#fff40d;fill-opacity:1;fill-rule:evenodd;stroke:#000000;stroke-width:0.261963;stroke-linejoin:round;stroke-miterlimit:4;stroke-dasharray:none;stroke-opacity:1"
         id="rect1316"
         width="26.196369"
         height="26.196369"
         x="-128.24855"
         y="46.11179"
         transform="scale(-1,1)" />
      <path
         d="m 111.80174,61.45962 1.30224,-0.110243 q 0.14469,0.950846 0.66835,1.433159 0.53054,0.475422 1.27468,0.475422 0.89573,0 1.51584,-0.675238 0.62012,-0.675238 0.62012,-1.791448 0,-1.061089 -0.59945,-1.674315 -0.59255,-0.613227 -1.55718,-0.613227 -0.59944,0 -1.08176,0.275608 -0.48231,0.268717 -0.75792,0.702799 l -1.16444,-0.151584 0.97841,-5.18831 h 5.02294 v 1.185112 h -4.03076 l -0.54432,2.714733 q 0.9095,-0.633897 1.90858,-0.633897 1.32292,0 2.23242,0.916394 0.90951,0.916395 0.90951,2.356444 0,1.371147 -0.79927,2.370224 -0.97151,1.226453 -2.65272,1.226453 -1.37803,0 -2.25309,-0.771701 -0.86816,-0.771701 -0.99218,-2.046385 z"
         style="font-style:normal;font-variant:normal;font-weight:normal;font-stretch:normal;font-size:14.1111px;font-family:Arial;-inkscape-font-specification:Arial;text-align:end;writing-mode:tb-rl;text-anchor:end;fill:#000000;fill-opacity:1;fill-rule:evenodd;stroke:none;stroke-width:0.264583;stroke-linejoin:round;stroke-miterlimit:4;stroke-dasharray:none;stroke-opacity:1"
         id="path1318" />
    </g>
    <g
       id="g1326"
       transform="translate(370.41658,105.83333)">
      <rect
         style="fill:#fff40d;fill-opacity:1;fill-rule:evenodd;stroke:#000000;stroke-width:0.261963;stroke-linejoin:round;stroke-miterlimit:4;stroke-dasharray:none;stroke-opacity:1"
         id="rect1322"
         width="26.196369"
         height="26.196369"
         x="-75.33197"
         y="46.11179"
         transform="scale(-1,1)" />
      <path
         d="m 58.940277,59.213419 q 0,-1.791449 0.36518,-2.880098 0.37207,-1.09554 1.095539,-1.688095 0.73036,-0.592556 1.83279,-0.592556 0.813042,0 1.426268,0.330728 0.613227,0.323839 1.012857,0.943956 0.399631,0.613226 0.627007,1.50206 0.227376,0.881944 0.227376,2.384005 0,1.777668 -0.365179,2.873207 -0.36518,1.088649 -1.09554,1.688096 -0.723469,0.592556 -1.832789,0.592556 -1.46072,0 -2.294432,-1.047309 -0.999077,-1.260904 -0.999077,-4.10655 z m 1.274684,0 q 0,2.487357 0.578776,3.314179 0.585666,0.819932 1.440049,0.819932 0.854383,0 1.433158,-0.826822 0.585666,-0.826823 0.585666,-3.307289 0,-2.494248 -0.585666,-3.31418 -0.578775,-0.819932 -1.446939,-0.819932 -0.854383,0 -1.364256,0.72347 -0.640788,0.923285 -0.640788,3.410642 z"
         style="font-style:normal;font-variant:normal;font-weight:normal;font-stretch:normal;font-size:14.1111px;font-family:Arial;-inkscape-font-specification:Arial;text-align:end;writing-mode:tb-rl;text-anchor:end;fill:#000000;fill-opacity:1;fill-rule:evenodd;stroke:none;stroke-width:0.264583;stroke-linejoin:round;stroke-miterlimit:4;stroke-dasharray:none;stroke-opacity:1"
         id="path1324" />
    </g>
    <g
       aria-label="→"
       transform="scale(1.2782598,0.78231361)"
       id="text1334"
       style="font-style:normal;font-variant:normal;font-weight:normal;font-stretch:normal;font-size:62.9871px;font-family:Arial;-inkscape-font-specification:Arial;text-align:end;writing-mode:tb-rl;text-anchor:end;fill:#000000;fill-opacity:1;fill-rule:evenodd;stroke:none;stroke-width:1.18101;stroke-linejoin:round;stroke-miterlimit:4;stroke-dasharray:none;stroke-opacity:1">
      <path
         d="m 56.287795,281.26193 -6.86344,8.51232 h -0.92749 l -7.02833,-8.53293 v -1.58704 l 3.5945,-0.0194 v -10.66264 h 7.63025 v 10.66264 l 3.59451,0.0606 z"
         style="stroke-width:0.791461"
         id="path1339"
         sodipodi:nodetypes="ccccccccccc" />
    </g>
    <path
       d="m 71.950425,113.57064 -8.773259,6.6593 h -1.185573 l -8.984032,-6.67542 v -1.24157 l 4.594705,-0.0152 v -8.34153 h 9.753441 v 8.34153 l 4.594718,0.0474 z"
       style="font-style:normal;font-variant:normal;font-weight:normal;font-stretch:normal;font-size:62.9871px;font-family:Arial;-inkscape-font-specification:Arial;text-align:end;writing-mode:tb-rl;text-anchor:end;fill:#000000;fill-opacity:1;fill-rule:evenodd;stroke:none;stroke-width:0.791461;stroke-linejoin:round;stroke-miterlimit:4;stroke-dasharray:none;stroke-opacity:1"
       id="path1336"
       sodipodi:nodetypes="ccccccccccc" />
    <path
       d="m 204.24216,113.57064 -8.77327,6.6593 h -1.18557 l -8.98404,-6.67542 v -1.24157 l 4.59471,-0.0152 v -8.34153 h 9.75345 v 8.34153 l 4.59472,0.0474 z"
       style="font-style:normal;font-variant:normal;font-weight:normal;font-stretch:normal;font-size:62.9871px;font-family:Arial;-inkscape-font-specification:Arial;text-align:end;writing-mode:tb-rl;text-anchor:end;fill:#000000;fill-opacity:1;fill-rule:evenodd;stroke:none;stroke-width:0.791461;stroke-linejoin:round;stroke-miterlimit:4;stroke-dasharray:none;stroke-opacity:1"
       id="path1356"
       sodipodi:nodetypes="ccccccccccc" />
    <path
       d="m 336.53391,113.57064 -8.77327,6.6593 h -1.18557 l -8.98404,-6.67542 v -1.24157 l 4.59471,-0.0152 v -8.34153 h 9.75345 v 8.34153 l 4.59472,0.0474 z"
       style="font-style:normal;font-variant:normal;font-weight:normal;font-stretch:normal;font-size:62.9871px;font-family:Arial;-inkscape-font-specification:Arial;text-align:end;writing-mode:tb-rl;text-anchor:end;fill:#000000;fill-opacity:1;fill-rule:evenodd;stroke:none;stroke-width:0.791461;stroke-linejoin:round;stroke-miterlimit:4;stroke-dasharray:none;stroke-opacity:1"
       id="path1358"
       sodipodi:nodetypes="ccccccccccc" />
    <path
       d="m 468.82566,113.57064 -8.77327,6.6593 h -1.18557 l -8.98404,-6.67542 v -1.24157 l 4.59471,-0.0152 v -8.34153 h 9.75345 v 8.34153 l 4.59472,0.0474 z"
       style="font-style:normal;font-variant:normal;font-weight:normal;font-stretch:normal;font-size:62.9871px;font-family:Arial;-inkscape-font-specification:Arial;text-align:end;writing-mode:tb-rl;text-anchor:end;fill:#000000;fill-opacity:1;fill-rule:evenodd;stroke:none;stroke-width:0.791461;stroke-linejoin:round;stroke-miterlimit:4;stroke-dasharray:none;stroke-opacity:1"
       id="path1360"
       sodipodi:nodetypes="ccccccccccc" />
    <path
       d="m 143.33158,50.234137 6.6593,8.773264 v 1.18557 l -6.67542,8.984034 h -1.24157 l -0.0152,-4.594707 h -8.34153 v -9.753444 h 8.34153 l 0.0474,-4.594717 z"
       style="font-style:normal;font-variant:normal;font-weight:normal;font-stretch:normal;font-size:62.9871px;font-family:Arial;-inkscape-font-specification:Arial;text-align:end;writing-mode:tb-rl;text-anchor:end;fill:#000000;fill-opacity:1;fill-rule:evenodd;stroke:none;stroke-width:0.791461;stroke-linejoin:round;stroke-miterlimit:4;stroke-dasharray:none;stroke-opacity:1"
       id="path1362"
       sodipodi:nodetypes="ccccccccccc" />
    <path
       d="m 275.62333,50.234137 6.6593,8.773264 v 1.18557 l -6.67542,8.984034 h -1.24157 l -0.0152,-4.594707 h -8.34153 v -9.753444 h 8.34153 l 0.0474,-4.594717 z"
       style="font-style:normal;font-variant:normal;font-weight:normal;font-stretch:normal;font-size:62.9871px;font-family:Arial;-inkscape-font-specification:Arial;text-align:end;writing-mode:tb-rl;text-anchor:end;fill:#000000;fill-opacity:1;fill-rule:evenodd;stroke:none;stroke-width:0.791461;stroke-linejoin:round;stroke-miterlimit:4;stroke-dasharray:none;stroke-opacity:1"
       id="path1364"
       sodipodi:nodetypes="ccccccccccc" />
    <path
       d="m 407.91508,50.234137 6.6593,8.773264 v 1.18557 l -6.67542,8.984034 h -1.24157 l -0.0152,-4.594707 h -8.34153 v -9.753444 h 8.34153 l 0.0474,-4.594717 z"
       style="font-style:normal;font-variant:normal;font-weight:normal;font-stretch:normal;font-size:62.9871px;font-family:Arial;-inkscape-font-specification:Arial;text-align:end;writing-mode:tb-rl;text-anchor:end;fill:#000000;fill-opacity:1;fill-rule:evenodd;stroke:none;stroke-width:0.791461;stroke-linejoin:round;stroke-miterlimit:4;stroke-dasharray:none;stroke-opacity:1"
       id="path1366"
       sodipodi:nodetypes="ccccccccccc" />
    <path
       d="m 37.498216,-13.265865 6.659297,8.773263 v 1.1855699 l -6.675417,8.9840334 h -1.241567 l -0.0152,-4.5947067 h -8.341527 v -9.7534434 h 8.341527 l 0.0474,-4.5947162 z"
       style="font-style:normal;font-variant:normal;font-weight:normal;font-stretch:normal;font-size:62.9871px;font-family:Arial;-inkscape-font-specification:Arial;text-align:end;writing-mode:tb-rl;text-anchor:end;fill:#000000;fill-opacity:1;fill-rule:evenodd;stroke:none;stroke-width:0.791461;stroke-linejoin:round;stroke-miterlimit:4;stroke-dasharray:none;stroke-opacity:1"
       id="path1368"
       sodipodi:nodetypes="ccccccccccc" />
    <text
       xml:space="preserve"
       style="font-style:normal;font-variant:normal;font-weight:normal;font-stretch:normal;font-size:14.1111px;font-family:Arial;-inkscape-font-specification:Arial;text-align:start;writing-mode:lr-tb;text-anchor:start;fill:#000000;fill-opacity:1;fill-rule:evenodd;stroke:none;stroke-width:0.264583;stroke-linejoin:round;stroke-miterlimit:4;stroke-dasharray:none;stroke-opacity:1"
       x="51.968025"
       y="1.5351267"
       id="text1372"><tspan
         sodipodi:role="line"
         id="tspan1370"
         x="51.968025"
         y="1.5351267"
         style="text-align:start;writing-mode:lr-tb;text-anchor:start;stroke-width:0.264583"
         rotate="0 0 0 0">横回転</tspan></text>
    <text
       xml:space="preserve"
       style="font-style:normal;font-variant:normal;font-weight:normal;font-stretch:normal;font-size:14.1111px;font-family:Arial;-inkscape-font-specification:Arial;text-align:end;writing-mode:lr-tb;text-anchor:end;fill:#000000;fill-opacity:1;fill-rule:evenodd;stroke:none;stroke-width:0.264583;stroke-linejoin:round;stroke-miterlimit:4;stroke-dasharray:none;stroke-opacity:1"
       x="200.07616"
       y="1.102424"
       id="text1376"><tspan
         sodipodi:role="line"
         id="tspan1374"
         x="200.07616"
         y="1.102424"
         style="writing-mode:lr-tb;stroke-width:0.264583"
         rotate="0 0 0 0">縦回転</tspan></text>
    <path
       d="m 151.32546,-2.8460391 -8.77327,6.6592967 h -1.18557 l -8.98404,-6.6754167 v -1.24157 l 4.59471,-0.0152 v -8.3415229 h 9.75345 v 8.3415229 l 4.59472,0.0474 z"
       style="font-style:normal;font-variant:normal;font-weight:normal;font-stretch:normal;font-size:62.9871px;font-family:Arial;-inkscape-font-specification:Arial;text-align:end;writing-mode:tb-rl;text-anchor:end;fill:#000000;fill-opacity:1;fill-rule:evenodd;stroke:none;stroke-width:0.791461;stroke-linejoin:round;stroke-miterlimit:4;stroke-dasharray:none;stroke-opacity:1"
       id="path1392"
       sodipodi:nodetypes="ccccccccccc" />
    <path
       d="m 143.33158,156.06751 6.6593,8.77327 v 1.18557 l -6.67542,8.98404 h -1.24157 l -0.0152,-4.59471 h -8.34153 v -9.75345 h 8.34153 l 0.0474,-4.59472 z"
       style="font-style:normal;font-variant:normal;font-weight:normal;font-stretch:normal;font-size:62.9871px;font-family:Arial;-inkscape-font-specification:Arial;text-align:end;writing-mode:tb-rl;text-anchor:end;fill:#000000;fill-opacity:1;fill-rule:evenodd;stroke:none;stroke-width:0.791461;stroke-linejoin:round;stroke-miterlimit:4;stroke-dasharray:none;stroke-opacity:1"
       id="path1394"
       sodipodi:nodetypes="ccccccccccc" />
    <path
       style="fill:none;stroke:#000000;stroke-width:0.26499999;stroke-linecap:butt;stroke-linejoin:miter;stroke-opacity:1;stroke-miterlimit:4;stroke-dasharray:none"
       d="m -54.70323,156.19462 23.344607,23.34462"
       id="path1396" />
  </g>
</svg>
